<svg width="22" height="24" viewBox="0 0 22 24" fill="none" xmlns="http://www.w3.org/2000/svg">
<path d="M20.684 18.7033C20.3211 19.5418 19.8915 20.3136 19.3937 21.0232C18.7152 21.9906 18.1597 22.6602 17.7315 23.032C17.0679 23.6424 16.3568 23.955 15.5953 23.9728C15.0487 23.9728 14.3894 23.8172 13.6221 23.5017C12.8521 23.1876 12.1446 23.032 11.4977 23.032C10.8192 23.032 10.0915 23.1876 9.31315 23.5017C8.53362 23.8172 7.90564 23.9816 7.42551 23.9979C6.69531 24.0291 5.96748 23.7076 5.24099 23.032C4.7773 22.6276 4.19732 21.9343 3.50252 20.9521C2.75707 19.9033 2.1442 18.687 1.66407 17.3004C1.14986 15.8026 0.89209 14.3523 0.89209 12.9482C0.89209 11.3398 1.23963 9.95259 1.93576 8.79011C2.48285 7.85636 3.21068 7.11979 4.12162 6.57906C5.03255 6.03834 6.01681 5.76279 7.07678 5.74516C7.65676 5.74516 8.41733 5.92456 9.36248 6.27715C10.305 6.63091 10.9101 6.81032 11.1755 6.81032C11.3738 6.81032 12.0461 6.60054 13.1858 6.18233C14.2635 5.79449 15.1731 5.63391 15.9183 5.69716C17.9375 5.86012 19.4545 6.6561 20.4633 8.09013C18.6574 9.18432 17.7641 10.7169 17.7819 12.6829C17.7982 14.2142 18.3538 15.4886 19.4456 16.5004C19.9404 16.97 20.4929 17.333 21.1077 17.5907C20.9744 17.9774 20.8337 18.3477 20.684 18.7033ZM16.0531 0.480137C16.0531 1.68041 15.6146 2.8011 14.7405 3.8384C13.6858 5.07155 12.4099 5.78412 11.0264 5.67168C11.0088 5.52769 10.9986 5.37614 10.9986 5.21688C10.9986 4.06462 11.5002 2.83147 12.391 1.82321C12.8357 1.3127 13.4013 0.888228 14.0872 0.549615C14.7716 0.216055 15.419 0.031589 16.0279 0C16.0457 0.160458 16.0531 0.320926 16.0531 0.480121V0.480137Z" fill="#272D37"/>
</svg>
