<svg width="22" height="24" viewBox="0 0 22 24" fill="none" xmlns="http://www.w3.org/2000/svg">
<path d="M20.6842 18.7033C20.3212 19.5418 19.8916 20.3136 19.3938 21.0232C18.7153 21.9906 18.1598 22.6602 17.7317 23.032C17.068 23.6424 16.3569 23.955 15.5954 23.9728C15.0488 23.9728 14.3896 23.8172 13.6222 23.5017C12.8523 23.1876 12.1447 23.032 11.4978 23.032C10.8193 23.032 10.0916 23.1876 9.31327 23.5017C8.53374 23.8172 7.90576 23.9816 7.42563 23.9979C6.69543 24.0291 5.9676 23.7076 5.24111 23.032C4.77742 22.6276 4.19744 21.9343 3.50265 20.9521C2.75719 19.9033 2.14432 18.687 1.66419 17.3004C1.14998 15.8026 0.892212 14.3523 0.892212 12.9482C0.892212 11.3398 1.23976 9.95259 1.93588 8.79011C2.48298 7.85636 3.2108 7.11979 4.12174 6.57906C5.03267 6.03834 6.01694 5.76279 7.0769 5.74516C7.65688 5.74516 8.41745 5.92456 9.36261 6.27715C10.3051 6.63091 10.9103 6.81032 11.1756 6.81032C11.3739 6.81032 12.0462 6.60054 13.1859 6.18233C14.2636 5.79449 15.1732 5.63391 15.9184 5.69716C17.9376 5.86012 19.4546 6.6561 20.4634 8.09013C18.6576 9.18432 17.7643 10.7169 17.782 12.6829C17.7983 14.2142 18.3539 15.4886 19.4457 16.5004C19.9405 16.97 20.4931 17.333 21.1079 17.5907C20.9745 17.9774 20.8338 18.3477 20.6842 18.7033ZM16.0532 0.480137C16.0532 1.68041 15.6147 2.8011 14.7407 3.8384C13.6859 5.07155 12.4101 5.78412 11.0266 5.67168C11.0089 5.52769 10.9987 5.37614 10.9987 5.21688C10.9987 4.06462 11.5003 2.83147 12.3911 1.82321C12.8358 1.3127 13.4014 0.888228 14.0873 0.549615C14.7718 0.216055 15.4192 0.031589 16.028 0C16.0458 0.160458 16.0532 0.320926 16.0532 0.480121V0.480137Z" fill="white"/>
</svg>
