<svg width="22" height="22" viewBox="0 0 22 22" fill="none" xmlns="http://www.w3.org/2000/svg">
<path d="M1.8335 12.8334C1.8335 11.8209 2.65431 11.0001 3.66683 11.0001C4.67935 11.0001 5.50016 11.8209 5.50016 12.8334V16.5001C5.50016 17.5126 4.67935 18.3334 3.66683 18.3334C2.65431 18.3334 1.8335 17.5126 1.8335 16.5001V12.8334Z" stroke="#5F6D7E" stroke-width="1.67"/>
<path d="M9.16683 5.50008C9.16683 4.48756 9.98764 3.66675 11.0002 3.66675C12.0127 3.66675 12.8335 4.48756 12.8335 5.50008V16.5001C12.8335 17.5126 12.0127 18.3334 11.0002 18.3334C9.98764 18.3334 9.16683 17.5126 9.16683 16.5001V5.50008Z" stroke="#5F6D7E" stroke-width="1.67"/>
<path d="M16.5002 9.16675C16.5002 8.15423 17.321 7.33341 18.3335 7.33341C19.346 7.33341 20.1668 8.15423 20.1668 9.16675V16.5001C20.1668 17.5126 19.346 18.3334 18.3335 18.3334C17.321 18.3334 16.5002 17.5126 16.5002 16.5001V9.16675Z" stroke="#5F6D7E" stroke-width="1.67"/>
</svg>
