<svg width="22" height="23" viewBox="0 0 22 23" fill="none" xmlns="http://www.w3.org/2000/svg">
<path d="M1.8335 13.0734C1.8335 12.0609 2.65431 11.2401 3.66683 11.2401C4.67935 11.2401 5.50016 12.0609 5.50016 13.0734V16.7401C5.50016 17.7526 4.67935 18.5734 3.66683 18.5734C2.65431 18.5734 1.8335 17.7526 1.8335 16.7401V13.0734Z" stroke="#A5ACBA" stroke-width="1.67"/>
<path d="M9.16683 5.74007C9.16683 4.72755 9.98764 3.90674 11.0002 3.90674C12.0127 3.90674 12.8335 4.72755 12.8335 5.74007V16.7401C12.8335 17.7526 12.0127 18.5734 11.0002 18.5734C9.98764 18.5734 9.16683 17.7526 9.16683 16.7401V5.74007Z" stroke="#A5ACBA" stroke-width="1.67"/>
<path d="M16.5002 9.40674C16.5002 8.39422 17.321 7.57341 18.3335 7.57341C19.346 7.57341 20.1668 8.39422 20.1668 9.40674V16.7401C20.1668 17.7526 19.346 18.5734 18.3335 18.5734C17.321 18.5734 16.5002 17.7526 16.5002 16.7401V9.40674Z" stroke="#A5ACBA" stroke-width="1.67"/>
</svg>
