<svg width="22" height="22" viewBox="0 0 22 22" fill="none" xmlns="http://www.w3.org/2000/svg">
<g clip-path="url(#clip0_1016_50612)">
<path d="M10.9998 0.916626V21.0833M21.0832 11L0.916504 11M8.24984 21.0833H13.7498C16.3167 21.0833 17.6002 21.0833 18.5806 20.5837C19.443 20.1443 20.1442 19.4432 20.5836 18.5808C21.0832 17.6003 21.0832 16.3169 21.0832 13.75V8.24996C21.0832 5.68305 21.0832 4.3996 20.5836 3.41917C20.1442 2.55676 19.443 1.8556 18.5806 1.41618C17.6002 0.916626 16.3167 0.916626 13.7498 0.916626H8.24984C5.68293 0.916626 4.39948 0.916626 3.41905 1.41618C2.55664 1.8556 1.85548 2.55676 1.41606 3.41917C0.916504 4.3996 0.916504 5.68305 0.916504 8.24996V13.75C0.916504 16.3169 0.916504 17.6003 1.41606 18.5808C1.85548 19.4432 2.55664 20.1443 3.41905 20.5837C4.39948 21.0833 5.68293 21.0833 8.24984 21.0833Z" stroke="#5F6D7E" stroke-width="1.67" stroke-linecap="round"/>
</g>
<defs>
<clipPath id="clip0_1016_50612">
<rect width="22" height="22" fill="white"/>
</clipPath>
</defs>
</svg>
