<svg width="22" height="23" viewBox="0 0 22 23" fill="none" xmlns="http://www.w3.org/2000/svg">
<g clip-path="url(#clip0_1121_119072)">
<path d="M10.9998 1.15662V21.3233M21.0832 11.24L0.916504 11.2399M8.24984 21.3233H13.7498C16.3167 21.3233 17.6002 21.3233 18.5806 20.8237C19.443 20.3843 20.1442 19.6832 20.5836 18.8207C21.0832 17.8403 21.0832 16.5569 21.0832 13.99V8.48995C21.0832 5.92304 21.0832 4.63959 20.5836 3.65916C20.1442 2.79675 19.443 2.09559 18.5806 1.65617C17.6002 1.15662 16.3167 1.15662 13.7498 1.15662H8.24984C5.68293 1.15662 4.39948 1.15662 3.41905 1.65617C2.55664 2.09559 1.85548 2.79675 1.41606 3.65916C0.916504 4.63959 0.916504 5.92304 0.916504 8.48995V13.99C0.916504 16.5569 0.916504 17.8403 1.41606 18.8207C1.85548 19.6832 2.55664 20.3843 3.41905 20.8237C4.39948 21.3233 5.68293 21.3233 8.24984 21.3233Z" stroke="#A5ACBA" stroke-width="1.67" stroke-linecap="round"/>
</g>
<defs>
<clipPath id="clip0_1121_119072">
<rect width="22" height="22" fill="white" transform="translate(0 0.23999)"/>
</clipPath>
</defs>
</svg>
