<svg width="48" height="48" viewBox="0 0 48 48" fill="none" xmlns="http://www.w3.org/2000/svg">
<path d="M15 22H33M21 17H18.2C17.0799 17 16.5198 17 16.092 17.218C15.7157 17.4097 15.4097 17.7157 15.218 18.092C15 18.5198 15 19.0799 15 20.2V29.8C15 30.9201 15 31.4802 15.218 31.908C15.4097 32.2843 15.7157 32.5903 16.092 32.782C16.5198 33 17.0799 33 18.2 33H29.8C30.9201 33 31.4802 33 31.908 32.782C32.2843 32.5903 32.5903 32.2843 32.782 31.908C33 31.4802 33 30.9201 33 29.8V20.2C33 19.0799 33 18.5198 32.782 18.092C32.5903 17.7157 32.2843 17.4097 31.908 17.218C31.4802 17 30.9201 17 29.8 17H27M21 17H27M21 17V16.5C21 15.6716 20.3284 15 19.5 15C18.6716 15 18 15.6716 18 16.5V17M27 17V16.5C27 15.6716 27.6716 15 28.5 15C29.3284 15 30 15.6716 30 16.5V17" stroke="#5F6D7E" stroke-width="2" stroke-linecap="round"/>
</svg>
