<svg width="29" height="28" viewBox="0 0 29 28" fill="none" xmlns="http://www.w3.org/2000/svg">
<path d="M3.15387 8.1665H26.4871C26.4862 7.01343 26.4715 6.40902 26.2328 5.94053C26.0091 5.50148 25.6522 5.14453 25.2131 4.92082C24.714 4.6665 24.0606 4.6665 22.7538 4.6665H6.88714C5.58035 4.6665 4.92696 4.6665 4.42783 4.92082C3.98879 5.14453 3.63183 5.50148 3.40813 5.94053C3.16942 6.40902 3.15477 7.01343 3.15387 8.1665Z" fill="#437EF7"/>
<path fill-rule="evenodd" clip-rule="evenodd" d="M26.4871 10.4998H3.15381V19.5998C3.15381 20.9066 3.15381 21.56 3.40813 22.0591C3.63183 22.4982 3.98879 22.8551 4.42783 23.0789C4.92696 23.3332 5.58035 23.3332 6.88714 23.3332H22.7538C24.0606 23.3332 24.714 23.3332 25.2131 23.0789C25.6522 22.8551 26.0091 22.4982 26.2328 22.0591C26.4871 21.56 26.4871 20.9066 26.4871 19.5998V10.4998ZM6.65381 18.6665C6.65381 18.0222 7.17614 17.4998 7.82048 17.4998H12.4871C13.1315 17.4998 13.6538 18.0222 13.6538 18.6665C13.6538 19.3108 13.1315 19.8332 12.4871 19.8332H7.82048C7.17614 19.8332 6.65381 19.3108 6.65381 18.6665ZM17.1538 17.4998C16.5095 17.4998 15.9871 18.0222 15.9871 18.6665C15.9871 19.3108 16.5095 19.8332 17.1538 19.8332H21.8205C22.4648 19.8332 22.9871 19.3108 22.9871 18.6665C22.9871 18.0222 22.4648 17.4998 21.8205 17.4998H17.1538Z" fill="#437EF7"/>
</svg>
