<svg width="140" height="28" viewBox="0 0 140 28" fill="none" xmlns="http://www.w3.org/2000/svg">
<path d="M15.9429 3.59142L17.8697 7.65811C18.1855 8.32385 18.7953 8.78524 19.5008 8.89211L23.8099 9.54432C25.5865 9.81315 26.296 12.0868 25.0103 13.392L21.8912 16.557C21.3808 17.0753 21.1479 17.8221 21.2683 18.5539L22.0044 23.0235C22.3082 24.8664 20.4506 26.2714 18.8621 25.4016L15.0078 23.2925C14.3768 22.9468 13.6228 22.9468 12.9917 23.2925L9.13747 25.403C7.54891 26.2728 5.69138 24.8662 5.99519 23.0249L6.73121 18.5553C6.85223 17.823 6.61909 17.0757 6.10831 16.557L2.99007 13.3916C1.70433 12.0864 2.41382 9.81279 4.19041 9.54397L8.49951 8.89176C9.20509 8.78487 9.81485 8.32344 10.1307 7.65776L12.0567 3.59148C12.8521 1.91421 15.1475 1.91415 15.9429 3.59142Z" fill="#FFAE43"/>
<path d="M43.9429 3.59142L45.8697 7.65811C46.1855 8.32385 46.7953 8.78524 47.5008 8.89211L51.8099 9.54432C53.5865 9.81315 54.296 12.0868 53.0103 13.392L49.8912 16.557C49.3808 17.0753 49.1479 17.8221 49.2683 18.5539L50.0044 23.0235C50.3082 24.8664 48.4506 26.2714 46.8621 25.4016L43.0078 23.2925C42.3768 22.9468 41.6228 22.9468 40.9917 23.2925L37.1375 25.403C35.5489 26.2728 33.6914 24.8662 33.9952 23.0249L34.7312 18.5553C34.8522 17.823 34.6191 17.0757 34.1083 16.557L30.9901 13.3916C29.7043 12.0864 30.4138 9.81279 32.1904 9.54397L36.4995 8.89176C37.2051 8.78487 37.8148 8.32344 38.1307 7.65776L40.0567 3.59148C40.8521 1.91421 43.1475 1.91415 43.9429 3.59142Z" fill="#FFAE43"/>
<path d="M71.9429 3.59142L73.8697 7.65811C74.1855 8.32385 74.7953 8.78524 75.5008 8.89211L79.8099 9.54432C81.5865 9.81315 82.296 12.0868 81.0103 13.392L77.8912 16.557C77.3808 17.0753 77.1479 17.8221 77.2683 18.5539L78.0044 23.0235C78.3082 24.8664 76.4506 26.2714 74.8621 25.4016L71.0078 23.2925C70.3768 22.9468 69.6228 22.9468 68.9917 23.2925L65.1375 25.403C63.5489 26.2728 61.6914 24.8662 61.9952 23.0249L62.7312 18.5553C62.8522 17.823 62.6191 17.0757 62.1083 16.557L58.9901 13.3916C57.7043 12.0864 58.4138 9.81279 60.1904 9.54397L64.4995 8.89176C65.2051 8.78487 65.8148 8.32344 66.1307 7.65776L68.0567 3.59148C68.8521 1.91421 71.1475 1.91415 71.9429 3.59142Z" fill="#FFAE43"/>
<path d="M99.9429 3.59142L101.87 7.65811C102.186 8.32385 102.795 8.78524 103.501 8.89211L107.81 9.54432C109.587 9.81315 110.296 12.0868 109.01 13.392L105.891 16.557C105.381 17.0753 105.148 17.8221 105.268 18.5539L106.004 23.0235C106.308 24.8664 104.451 26.2714 102.862 25.4016L99.0078 23.2925C98.3768 22.9468 97.6228 22.9468 96.9917 23.2925L93.1375 25.403C91.5489 26.2728 89.6914 24.8662 89.9952 23.0249L90.7312 18.5553C90.8522 17.823 90.6191 17.0757 90.1083 16.557L86.9901 13.3916C85.7043 12.0864 86.4138 9.81279 88.1904 9.54397L92.4995 8.89176C93.2051 8.78487 93.8148 8.32344 94.1307 7.65776L96.0567 3.59148C96.8521 1.91421 99.1475 1.91415 99.9429 3.59142Z" fill="#FFAE43"/>
<path d="M127.943 3.59142L129.87 7.65811C130.186 8.32385 130.795 8.78524 131.501 8.89211L135.81 9.54432C137.587 9.81315 138.296 12.0868 137.01 13.392L133.891 16.557C133.381 17.0753 133.148 17.8221 133.268 18.5539L134.004 23.0235C134.308 24.8664 132.451 26.2714 130.862 25.4016L127.008 23.2925C126.377 22.9468 125.623 22.9468 124.992 23.2925L121.137 25.403C119.549 26.2728 117.691 24.8662 117.995 23.0249L118.731 18.5553C118.852 17.823 118.619 17.0757 118.108 16.557L114.99 13.3916C113.704 12.0864 114.414 9.81279 116.19 9.54397L120.5 8.89176C121.205 8.78487 121.815 8.32344 122.131 7.65776L124.057 3.59148C124.852 1.91421 127.147 1.91415 127.943 3.59142Z" fill="#DAE0E6"/>
</svg>
