<svg width="49" height="22" viewBox="0 0 49 22" fill="none" xmlns="http://www.w3.org/2000/svg">
<rect width="49" height="22" rx="5" fill="#F0FAF0"/>
<path d="M12.0994 16H9.03871V6.54545H12.1964C13.1228 6.54545 13.9183 6.73473 14.5831 7.11328C15.2479 7.48875 15.7572 8.02888 16.1112 8.73366C16.4682 9.43537 16.6467 10.2771 16.6467 11.2589C16.6467 12.2437 16.4666 13.0901 16.1065 13.7979C15.7495 14.5058 15.2325 15.0505 14.5554 15.4322C13.8783 15.8107 13.0597 16 12.0994 16ZM10.4652 14.7536H12.021C12.7411 14.7536 13.3397 14.6181 13.8168 14.3473C14.2938 14.0734 14.6508 13.6779 14.8878 13.1609C15.1248 12.6407 15.2433 12.0067 15.2433 11.2589C15.2433 10.5172 15.1248 9.88778 14.8878 9.37074C14.6539 8.85369 14.3046 8.46129 13.8398 8.19354C13.3751 7.92578 12.7981 7.7919 12.1087 7.7919H10.4652V14.7536ZM21.1966 16.1431C20.5318 16.1431 19.9517 15.9908 19.4562 15.6861C18.9607 15.3814 18.576 14.9551 18.3021 14.4073C18.0282 13.8595 17.8912 13.2193 17.8912 12.4869C17.8912 11.7513 18.0282 11.1081 18.3021 10.5572C18.576 10.0063 18.9607 9.57848 19.4562 9.27379C19.9517 8.96911 20.5318 8.81676 21.1966 8.81676C21.8614 8.81676 22.4415 8.96911 22.937 9.27379C23.4325 9.57848 23.8172 10.0063 24.0911 10.5572C24.3651 11.1081 24.502 11.7513 24.502 12.4869C24.502 13.2193 24.3651 13.8595 24.0911 14.4073C23.8172 14.9551 23.4325 15.3814 22.937 15.6861C22.4415 15.9908 21.8614 16.1431 21.1966 16.1431ZM21.2012 14.9844C21.6321 14.9844 21.9891 14.8705 22.2722 14.6428C22.5554 14.415 22.7647 14.1119 22.9001 13.7333C23.0386 13.3548 23.1078 12.9377 23.1078 12.4822C23.1078 12.0298 23.0386 11.6143 22.9001 11.2358C22.7647 10.8542 22.5554 10.5479 22.2722 10.3171C21.9891 10.0863 21.6321 9.97088 21.2012 9.97088C20.7673 9.97088 20.4072 10.0863 20.121 10.3171C19.8378 10.5479 19.627 10.8542 19.4885 11.2358C19.3531 11.6143 19.2854 12.0298 19.2854 12.4822C19.2854 12.9377 19.3531 13.3548 19.4885 13.7333C19.627 14.1119 19.8378 14.415 20.121 14.6428C20.4072 14.8705 20.7673 14.9844 21.2012 14.9844ZM27.3231 11.7898V16H25.9428V8.90909H27.2677V10.0632H27.3554C27.5185 9.68774 27.774 9.38613 28.1217 9.15838C28.4726 8.93063 28.9142 8.81676 29.4467 8.81676C29.9299 8.81676 30.353 8.91832 30.7162 9.12145C31.0794 9.3215 31.361 9.62003 31.561 10.017C31.7611 10.4141 31.8611 10.9049 31.8611 11.4897V16H30.4808V11.6559C30.4808 11.1419 30.3469 10.7403 30.0791 10.451C29.8114 10.1586 29.4436 10.0124 28.9758 10.0124C28.6557 10.0124 28.371 10.0817 28.1217 10.2202C27.8755 10.3587 27.6801 10.5618 27.5354 10.8295C27.3939 11.0942 27.3231 11.4143 27.3231 11.7898ZM36.6684 16.1431C35.9698 16.1431 35.3681 15.9938 34.8634 15.6953C34.3617 15.3937 33.9739 14.9705 33.7 14.4258C33.4292 13.878 33.2938 13.2363 33.2938 12.5007C33.2938 11.7744 33.4292 11.1342 33.7 10.5803C33.9739 10.0263 34.3555 9.59387 34.8449 9.28303C35.3373 8.97218 35.9128 8.81676 36.5714 8.81676C36.9715 8.81676 37.3593 8.88293 37.7348 9.01527C38.1103 9.14761 38.4473 9.35535 38.7458 9.63849C39.0443 9.92164 39.2798 10.2894 39.4521 10.7418C39.6245 11.1912 39.7107 11.7375 39.7107 12.3807V12.87H34.0739V11.8359H38.358C38.358 11.4728 38.2842 11.1512 38.1364 10.8711C37.9887 10.5879 37.781 10.3648 37.5132 10.2017C37.2485 10.0386 36.9377 9.95703 36.5807 9.95703C36.1929 9.95703 35.8544 10.0524 35.5651 10.2433C35.2788 10.431 35.0572 10.6772 34.9003 10.9819C34.7464 11.2835 34.6695 11.6113 34.6695 11.9652V12.7731C34.6695 13.247 34.7526 13.6502 34.9188 13.9826C35.088 14.315 35.3235 14.5689 35.6251 14.7443C35.9267 14.9167 36.2791 15.0028 36.6822 15.0028C36.9438 15.0028 37.1824 14.9659 37.3978 14.892C37.6132 14.8151 37.7994 14.7012 37.9564 14.5504C38.1134 14.3996 38.2334 14.2134 38.3165 13.9918L39.6229 14.2273C39.5183 14.612 39.3306 14.949 39.0597 15.2383C38.792 15.5245 38.455 15.7476 38.0487 15.9077C37.6456 16.0646 37.1854 16.1431 36.6684 16.1431Z" fill="#2D8A39"/>
</svg>
