<svg width="18" height="18" viewBox="0 0 18 18" fill="none" xmlns="http://www.w3.org/2000/svg">
<path d="M9.835 1.5C9.835 1.03884 9.46116 0.665 9 0.665C8.53884 0.665 8.165 1.03884 8.165 1.5L9.835 1.5ZM8.165 10.6667C8.165 11.1278 8.53884 11.5017 9 11.5017C9.46116 11.5017 9.835 11.1278 9.835 10.6667L8.165 10.6667ZM12.9238 9.59043C13.2499 9.26435 13.2499 8.73565 12.9238 8.40957C12.5977 8.08348 12.069 8.08348 11.7429 8.40957L12.9238 9.59043ZM9.58926 11.7441L8.99882 11.1536L9.58926 11.7441ZM8.41074 11.7441L9.00118 11.1536H9.00118L8.41074 11.7441ZM6.2571 8.40957C5.93101 8.08348 5.40232 8.08348 5.07623 8.40957C4.75014 8.73565 4.75014 9.26435 5.07623 9.59043L6.2571 8.40957ZM2.335 12.3333C2.335 11.8722 1.96116 11.4983 1.5 11.4983C1.03884 11.4983 0.665 11.8722 0.665 12.3333H2.335ZM17.335 12.3333C17.335 11.8722 16.9612 11.4983 16.5 11.4983C16.0388 11.4983 15.665 11.8722 15.665 12.3333H17.335ZM15.135 16.2275L14.7559 15.4835H14.7559L15.135 16.2275ZM16.2275 15.135L16.9715 15.5141L16.2275 15.135ZM1.77248 15.135L1.02849 15.5141L1.77248 15.135ZM2.86502 16.2275L2.48594 16.9715H2.48594L2.86502 16.2275ZM8.165 1.5L8.165 10.6667L9.835 10.6667L9.835 1.5L8.165 1.5ZM11.7429 8.40957L8.99882 11.1536L10.1797 12.3345L12.9238 9.59043L11.7429 8.40957ZM9.00118 11.1536L6.2571 8.40957L5.07623 9.59043L7.82031 12.3345L9.00118 11.1536ZM8.99882 11.1536C8.99789 11.1546 8.99843 11.1539 8.9998 11.1533C9.0006 11.153 9.00064 11.1532 9 11.1532C8.99935 11.1532 8.99939 11.153 9.0002 11.1533C9.00157 11.1539 9.00211 11.1546 9.00118 11.1536L7.82031 12.3345C8.47183 12.986 9.52816 12.986 10.1797 12.3345L8.99882 11.1536ZM0.665 12.3333V12.5H2.335V12.3333H0.665ZM5.5 17.335H12.5V15.665H5.5V17.335ZM17.335 12.5V12.3333H15.665V12.5H17.335ZM12.5 17.335C13.1863 17.335 13.7512 17.3356 14.21 17.2982C14.6785 17.2599 15.1093 17.1777 15.5141 16.9715L14.7559 15.4835C14.6258 15.5498 14.4392 15.6039 14.074 15.6337C13.699 15.6644 13.2138 15.665 12.5 15.665V17.335ZM15.665 12.5C15.665 13.2138 15.6644 13.699 15.6337 14.074C15.6039 14.4392 15.5498 14.6258 15.4835 14.7559L16.9715 15.5141C17.1777 15.1093 17.2599 14.6785 17.2982 14.21C17.3356 13.7512 17.335 13.1863 17.335 12.5H15.665ZM15.5141 16.9715C16.1416 16.6518 16.6518 16.1416 16.9715 15.5141L15.4835 14.7559C15.3239 15.0692 15.0692 15.3239 14.7559 15.4835L15.5141 16.9715ZM0.665 12.5C0.665 13.1863 0.664351 13.7512 0.701834 14.21C0.740113 14.6785 0.822278 15.1093 1.02849 15.5141L2.51647 14.7559C2.45021 14.6258 2.39613 14.4392 2.36629 14.074C2.33565 13.699 2.335 13.2138 2.335 12.5H0.665ZM5.5 15.665C4.78616 15.665 4.30099 15.6644 3.926 15.6337C3.56076 15.6039 3.37416 15.5498 3.24411 15.4835L2.48594 16.9715C2.89066 17.1777 3.32149 17.2599 3.79001 17.2982C4.24878 17.3356 4.81371 17.335 5.5 17.335V15.665ZM1.02849 15.5141C1.34823 16.1416 1.85842 16.6518 2.48594 16.9715L3.24411 15.4835C2.93082 15.3239 2.6761 15.0692 2.51647 14.7559L1.02849 15.5141Z" fill="#272D37"/>
</svg>
