<svg width="22" height="22" viewBox="0 0 22 22" fill="none" xmlns="http://www.w3.org/2000/svg">
<path d="M10.9998 21.0833C5.43097 21.0833 0.916504 16.5688 0.916504 11C0.916504 5.43109 5.43097 0.916626 10.9998 0.916626C15.9426 0.916626 20.0548 4.47308 20.9169 9.16663M6.73797 2.17744C6.81989 4.84434 7.59081 9.25625 10.4937 7.33963C14.1222 4.94385 13.3554 5.62382 15.3635 6.03475C16.97 6.3635 18.3941 5.53906 18.9053 5.08575M2.25535 6.69994C2.31608 8.10717 2.91034 11.2694 4.80153 12.6607C7.16552 14.3998 9.7032 13.2453 7.82223 20.3923M12.4128 13.7919L14.2337 19.2505C14.5576 20.2213 15.9194 20.2526 16.2864 19.2977L16.9486 17.5749C17.0593 17.2869 17.2868 17.0593 17.5748 16.9486L19.2977 16.2864C20.2526 15.9194 20.2213 14.5576 19.2504 14.2338L13.7919 12.4128C12.9392 12.1283 12.1283 12.9392 12.4128 13.7919Z" stroke="#5F6D7E" stroke-width="1.67" stroke-linecap="round"/>
</svg>
