<svg width="22" height="23" viewBox="0 0 22 23" fill="none" xmlns="http://www.w3.org/2000/svg">
<path d="M10.9998 21.3233C5.43097 21.3233 0.916504 16.8088 0.916504 11.2399C0.916504 5.67108 5.43097 1.15662 10.9998 1.15662C15.9426 1.15662 20.0548 4.71307 20.9169 9.40662M6.73797 2.41744C6.81989 5.08433 7.59081 9.49624 10.4937 7.57962C14.1222 5.18384 13.3554 5.86381 15.3635 6.27474C16.97 6.60349 18.3941 5.77905 18.9053 5.32574M2.25535 6.93993C2.31608 8.34716 2.91034 11.5094 4.80153 12.9007C7.16552 14.6398 9.7032 13.4853 7.82223 20.6323M12.4128 14.0319L14.2337 19.4905C14.5576 20.4613 15.9194 20.4926 16.2864 19.5377L16.9486 17.8148C17.0593 17.5268 17.2868 17.2993 17.5748 17.1886L19.2977 16.5264C20.2526 16.1594 20.2213 14.7976 19.2504 14.4737L13.7919 12.6528C12.9392 12.3683 12.1283 13.1792 12.4128 14.0319Z" stroke="#A5ACBA" stroke-width="1.67" stroke-linecap="round"/>
</svg>
