<svg width="22" height="22" viewBox="0 0 22 22" fill="none" xmlns="http://www.w3.org/2000/svg">
<path d="M6.49819 6.41665C6.49819 6.8778 6.87204 7.25165 7.33319 7.25165C7.79435 7.25165 8.16819 6.8778 8.16819 6.41665H6.49819ZM8.16819 15.5833C8.16819 15.1222 7.79435 14.7483 7.33319 14.7483C6.87204 14.7483 6.49819 15.1222 6.49819 15.5833H8.16819ZM8.33421 19.9668L8.71329 19.2228H8.71329L8.33421 19.9668ZM7.53302 19.1656L6.78902 19.5447L6.78903 19.5447L7.53302 19.1656ZM18.1334 19.1656L18.8774 19.5447V19.5447L18.1334 19.1656ZM17.3322 19.9668L16.9531 19.2228L16.9531 19.2228L17.3322 19.9668ZM17.3322 2.03313L16.9531 2.77712V2.77713L17.3322 2.03313ZM18.1334 2.83433L17.3894 3.21341V3.21341L18.1334 2.83433ZM7.53302 2.83433L6.78902 2.45525V2.45525L7.53302 2.83433ZM8.33421 2.03313L7.95513 1.28914L8.33421 2.03313ZM2.74986 10.165C2.2887 10.165 1.91486 10.5388 1.91486 11C1.91486 11.4611 2.2887 11.835 2.74986 11.835L2.74986 10.165ZM12.8332 11.835C13.2944 11.835 13.6682 11.4611 13.6682 11C13.6682 10.5388 13.2944 10.165 12.8332 10.165L12.8332 11.835ZM5.17363 8.84041C5.49972 8.51433 5.49972 7.98563 5.17363 7.65955C4.84754 7.33346 4.31885 7.33346 3.99276 7.65954L5.17363 8.84041ZM2.87028 9.96289L2.27985 9.37245H2.27985L2.87028 9.96289ZM2.87028 12.0371L2.27985 12.6275L2.27985 12.6275L2.87028 12.0371ZM3.99276 14.3404C4.31885 14.6665 4.84754 14.6665 5.17363 14.3404C5.49972 14.0143 5.49972 13.4856 5.17363 13.1595L3.99276 14.3404ZM2.25776 10.7167L3.05189 10.9747H3.05189L2.25776 10.7167ZM2.25776 11.2832L3.05189 11.0252L2.25776 11.2832ZM8.16819 6.41665V4.76665H6.49819V6.41665H8.16819ZM10.2665 2.66831H15.3999V0.998313H10.2665V2.66831ZM17.4982 4.76665V17.2333H19.1682V4.76665H17.4982ZM15.3999 19.3316H10.2665V21.0016H15.3999V19.3316ZM8.16819 17.2333V15.5833H6.49819V17.2333H8.16819ZM10.2665 19.3316C9.73937 19.3316 9.39422 19.331 9.13039 19.3094C8.87632 19.2887 8.77205 19.2528 8.71329 19.2228L7.95513 20.7108C8.28855 20.8807 8.63705 20.9447 8.9944 20.9739C9.342 21.0023 9.76692 21.0016 10.2665 21.0016V19.3316ZM6.49819 17.2333C6.49819 17.7329 6.49754 18.1578 6.52594 18.5054C6.55514 18.8628 6.61914 19.2113 6.78902 19.5447L8.27701 18.7865C8.24707 18.7278 8.21116 18.6235 8.1904 18.3694C8.16884 18.1056 8.16819 17.7605 8.16819 17.2333H6.49819ZM8.71329 19.2228C8.52544 19.1271 8.37272 18.9744 8.27701 18.7865L6.78903 19.5447C7.04485 20.0468 7.45305 20.455 7.95513 20.7108L8.71329 19.2228ZM17.4982 17.2333C17.4982 17.7605 17.4975 18.1056 17.476 18.3694C17.4552 18.6235 17.4193 18.7278 17.3894 18.7865L18.8774 19.5447C19.0472 19.2113 19.1112 18.8628 19.1404 18.5054C19.1688 18.1578 19.1682 17.7329 19.1682 17.2333H17.4982ZM15.3999 21.0016C15.8995 21.0016 16.3244 21.0023 16.672 20.9739C17.0293 20.9447 17.3778 20.8807 17.7113 20.7108L16.9531 19.2228C16.8943 19.2528 16.7901 19.2887 16.536 19.3094C16.2722 19.331 15.927 19.3316 15.3999 19.3316V21.0016ZM17.3894 18.7865C17.2937 18.9744 17.1409 19.1271 16.9531 19.2228L17.7113 20.7108C18.2133 20.455 18.6215 20.0468 18.8774 19.5447L17.3894 18.7865ZM15.3999 2.66831C15.927 2.66831 16.2722 2.66896 16.536 2.69052C16.7901 2.71128 16.8943 2.74719 16.9531 2.77712L17.7113 1.28914C17.3778 1.11926 17.0293 1.05526 16.672 1.02606C16.3244 0.997664 15.8995 0.998313 15.3999 0.998313V2.66831ZM19.1682 4.76665C19.1682 4.26704 19.1688 3.84212 19.1404 3.49452C19.1112 3.13717 19.0472 2.78866 18.8774 2.45525L17.3894 3.21341C17.4193 3.27217 17.4552 3.37644 17.476 3.63051C17.4975 3.89434 17.4982 4.23949 17.4982 4.76665H19.1682ZM16.9531 2.77713C17.1409 2.87284 17.2937 3.02556 17.3894 3.21341L18.8774 2.45525C18.6215 1.95317 18.2133 1.54497 17.7113 1.28914L16.9531 2.77713ZM8.16819 4.76665C8.16819 4.23949 8.16884 3.89434 8.1904 3.63051C8.21116 3.37644 8.24707 3.27217 8.27701 3.21341L6.78902 2.45525C6.61914 2.78866 6.55514 3.13717 6.52594 3.49452C6.49754 3.84212 6.49819 4.26704 6.49819 4.76665H8.16819ZM10.2665 0.998313C9.76692 0.998313 9.342 0.997664 8.9944 1.02606C8.63705 1.05526 8.28855 1.11926 7.95513 1.28914L8.71329 2.77712C8.77205 2.74719 8.87632 2.71128 9.13039 2.69052C9.39422 2.66896 9.73937 2.66831 10.2665 2.66831V0.998313ZM8.27701 3.21341C8.37272 3.02556 8.52544 2.87284 8.71329 2.77712L7.95513 1.28914C7.45305 1.54497 7.04485 1.95317 6.78902 2.45525L8.27701 3.21341ZM2.74986 11.835L12.8332 11.835L12.8332 10.165L2.74986 10.165L2.74986 11.835ZM3.99276 7.65954L2.27985 9.37245L3.46072 10.5533L5.17363 8.84041L3.99276 7.65954ZM2.27985 12.6275L3.99276 14.3404L5.17363 13.1595L3.46072 11.4466L2.27985 12.6275ZM2.27985 9.37245C2.10809 9.54422 1.94329 9.70809 1.81684 9.85705C1.68405 10.0135 1.54526 10.2074 1.46362 10.4587L3.05189 10.9747C3.03826 11.0167 3.02422 11.0153 3.08994 10.9378C3.162 10.853 3.26947 10.7446 3.46072 10.5533L2.27985 9.37245ZM3.46072 11.4466C3.26947 11.2554 3.162 11.147 3.08995 11.0621C3.02422 10.9847 3.03826 10.9833 3.05189 11.0252L1.46362 11.5413C1.54526 11.7925 1.68406 11.9865 1.81684 12.1429C1.94329 12.2919 2.10808 12.4557 2.27985 12.6275L3.46072 11.4466ZM1.46362 10.4587C1.34931 10.8105 1.34931 11.1895 1.46362 11.5413L3.05189 11.0252C3.04656 11.0088 3.04656 10.9911 3.05189 10.9747L1.46362 10.4587Z" fill="#5F6D7E"/>
</svg>
