<svg width="22" height="23" viewBox="0 0 22 23" fill="none" xmlns="http://www.w3.org/2000/svg">
<path d="M6.49819 7.17672C6.49819 7.63787 6.87204 8.01172 7.33319 8.01172C7.79435 8.01172 8.16819 7.63787 8.16819 7.17672H6.49819ZM8.16819 16.3434C8.16819 15.8822 7.79435 15.5084 7.33319 15.5084C6.87204 15.5084 6.49819 15.8822 6.49819 16.3434H8.16819ZM8.33421 20.7269L8.71329 19.9829H8.71329L8.33421 20.7269ZM7.53302 19.9257L6.78902 20.3048L6.78903 20.3048L7.53302 19.9257ZM18.1334 19.9257L18.8774 20.3048V20.3048L18.1334 19.9257ZM17.3322 20.7269L16.9531 19.9829L16.9531 19.9829L17.3322 20.7269ZM17.3322 2.79321L16.9531 3.5372V3.5372L17.3322 2.79321ZM18.1334 3.5944L17.3894 3.97348V3.97348L18.1334 3.5944ZM7.53302 3.5944L6.78902 3.21532V3.21532L7.53302 3.5944ZM8.33421 2.79321L7.95513 2.04921L8.33421 2.79321ZM2.74986 10.925C2.2887 10.925 1.91486 11.2989 1.91486 11.76C1.91486 12.2212 2.2887 12.595 2.74986 12.595L2.74986 10.925ZM12.8332 12.5951C13.2944 12.5951 13.6682 12.2212 13.6682 11.7601C13.6682 11.2989 13.2944 10.9251 12.8332 10.9251L12.8332 12.5951ZM5.17363 9.60048C5.49972 9.2744 5.49972 8.7457 5.17363 8.41962C4.84754 8.09353 4.31885 8.09353 3.99276 8.41962L5.17363 9.60048ZM2.87028 10.723L2.27985 10.1325H2.27985L2.87028 10.723ZM2.87028 12.7971L2.27985 13.3876L2.27985 13.3876L2.87028 12.7971ZM3.99276 15.1005C4.31885 15.4266 4.84754 15.4266 5.17363 15.1005C5.49972 14.7744 5.49972 14.2457 5.17363 13.9196L3.99276 15.1005ZM2.25776 11.4768L3.05189 11.7348H3.05189L2.25776 11.4768ZM2.25776 12.0433L3.05189 11.7853L2.25776 12.0433ZM8.16819 7.17672V5.52672H6.49819V7.17672H8.16819ZM10.2665 3.42838H15.3999V1.75838H10.2665V3.42838ZM17.4982 5.52672V17.9934H19.1682V5.52672H17.4982ZM15.3999 20.0917H10.2665V21.7617H15.3999V20.0917ZM8.16819 17.9934V16.3434H6.49819V17.9934H8.16819ZM10.2665 20.0917C9.73937 20.0917 9.39422 20.0911 9.13039 20.0695C8.87632 20.0488 8.77205 20.0128 8.71329 19.9829L7.95513 21.4709C8.28855 21.6408 8.63705 21.7048 8.9944 21.734C9.342 21.7624 9.76692 21.7617 10.2665 21.7617V20.0917ZM6.49819 17.9934C6.49819 18.493 6.49754 18.9179 6.52594 19.2655C6.55514 19.6229 6.61914 19.9714 6.78902 20.3048L8.27701 19.5466C8.24707 19.4879 8.21116 19.3836 8.1904 19.1295C8.16884 18.8657 8.16819 18.5205 8.16819 17.9934H6.49819ZM8.71329 19.9829C8.52544 19.8872 8.37272 19.7345 8.27701 19.5466L6.78903 20.3048C7.04485 20.8069 7.45305 21.2151 7.95513 21.4709L8.71329 19.9829ZM17.4982 17.9934C17.4982 18.5205 17.4975 18.8657 17.476 19.1295C17.4552 19.3836 17.4193 19.4879 17.3894 19.5466L18.8774 20.3048C19.0472 19.9714 19.1112 19.6229 19.1404 19.2655C19.1688 18.9179 19.1682 18.493 19.1682 17.9934H17.4982ZM15.3999 21.7617C15.8995 21.7617 16.3244 21.7624 16.672 21.734C17.0293 21.7048 17.3778 21.6408 17.7113 21.4709L16.9531 19.9829C16.8943 20.0128 16.7901 20.0488 16.536 20.0695C16.2722 20.0911 15.927 20.0917 15.3999 20.0917V21.7617ZM17.3894 19.5466C17.2937 19.7345 17.1409 19.8872 16.9531 19.9829L17.7113 21.4709C18.2133 21.2151 18.6215 20.8069 18.8774 20.3048L17.3894 19.5466ZM15.3999 3.42838C15.927 3.42838 16.2722 3.42903 16.536 3.45059C16.7901 3.47135 16.8943 3.50726 16.9531 3.5372L17.7113 2.04921C17.3778 1.87933 17.0293 1.81533 16.672 1.78613C16.3244 1.75773 15.8995 1.75838 15.3999 1.75838V3.42838ZM19.1682 5.52672C19.1682 5.02711 19.1688 4.60219 19.1404 4.25459C19.1112 3.89724 19.0472 3.54874 18.8774 3.21532L17.3894 3.97348C17.4193 4.03224 17.4552 4.13651 17.476 4.39058C17.4975 4.65441 17.4982 4.99956 17.4982 5.52672H19.1682ZM16.9531 3.5372C17.1409 3.63291 17.2937 3.78564 17.3894 3.97348L18.8774 3.21532C18.6215 2.71324 18.2133 2.30504 17.7113 2.04921L16.9531 3.5372ZM8.16819 5.52672C8.16819 4.99956 8.16884 4.65441 8.1904 4.39058C8.21116 4.13651 8.24707 4.03224 8.27701 3.97348L6.78902 3.21532C6.61914 3.54874 6.55514 3.89724 6.52594 4.25459C6.49754 4.60219 6.49819 5.02711 6.49819 5.52672H8.16819ZM10.2665 1.75838C9.76692 1.75838 9.342 1.75773 8.9944 1.78613C8.63705 1.81533 8.28855 1.87933 7.95513 2.04921L8.71329 3.5372C8.77205 3.50726 8.87632 3.47135 9.13039 3.45059C9.39422 3.42903 9.73937 3.42838 10.2665 3.42838V1.75838ZM8.27701 3.97348C8.37272 3.78563 8.52544 3.63291 8.71329 3.5372L7.95513 2.04921C7.45305 2.30504 7.04485 2.71324 6.78902 3.21532L8.27701 3.97348ZM2.74986 12.595L12.8332 12.5951L12.8332 10.9251L2.74986 10.925L2.74986 12.595ZM3.99276 8.41962L2.27985 10.1325L3.46072 11.3134L5.17363 9.60048L3.99276 8.41962ZM2.27985 13.3876L3.99276 15.1005L5.17363 13.9196L3.46072 12.2067L2.27985 13.3876ZM2.27985 10.1325C2.10809 10.3043 1.94329 10.4682 1.81684 10.6171C1.68405 10.7735 1.54526 10.9675 1.46362 11.2188L3.05189 11.7348C3.03826 11.7767 3.02422 11.7753 3.08994 11.6979C3.162 11.613 3.26947 11.5046 3.46072 11.3134L2.27985 10.1325ZM3.46072 12.2067C3.26947 12.0155 3.162 11.9071 3.08995 11.8222C3.02422 11.7448 3.03826 11.7433 3.05189 11.7853L1.46362 12.3013C1.54526 12.5526 1.68406 12.7466 1.81684 12.903C1.94329 13.0519 2.10808 13.2158 2.27985 13.3876L3.46072 12.2067ZM1.46362 11.2188C1.34931 11.5706 1.34931 11.9495 1.46362 12.3013L3.05189 11.7853C3.04656 11.7689 3.04656 11.7512 3.05189 11.7348L1.46362 11.2188Z" fill="#A5ACBA"/>
</svg>
