<svg width="18" height="18" viewBox="0 0 18 18" fill="none" xmlns="http://www.w3.org/2000/svg">
<path d="M16.6596 17.8404C16.9857 18.1665 17.5143 18.1665 17.8404 17.8404C18.1665 17.5143 18.1665 16.9857 17.8404 16.6596L16.6596 17.8404ZM13.5032 7.54412C13.5032 10.8352 10.8352 13.5032 7.54412 13.5032V15.1732C11.7576 15.1732 15.1732 11.7576 15.1732 7.54412H13.5032ZM7.54412 13.5032C4.25299 13.5032 1.585 10.8352 1.585 7.54412H-0.085C-0.085 11.7576 3.33067 15.1732 7.54412 15.1732V13.5032ZM1.585 7.54412C1.585 4.25299 4.25299 1.585 7.54412 1.585V-0.085C3.33067 -0.085 -0.085 3.33067 -0.085 7.54412H1.585ZM7.54412 1.585C10.8352 1.585 13.5032 4.25299 13.5032 7.54412H15.1732C15.1732 3.33067 11.7576 -0.085 7.54412 -0.085V1.585ZM11.8066 12.9875L16.6596 17.8404L17.8404 16.6596L12.9875 11.8066L11.8066 12.9875Z" fill="#919BA7"/>
</svg>
