<svg width="24" height="24" viewBox="0 0 24 24" fill="none" xmlns="http://www.w3.org/2000/svg">
<path d="M23.7628 12.2758C23.7628 11.46 23.6967 10.6399 23.5556 9.8374H12.2368V14.4584H18.7185C18.4496 15.9487 17.5853 17.2671 16.3199 18.1049V21.1032H20.1869C22.4577 19.0132 23.7628 15.9267 23.7628 12.2758Z" fill="#272D37"/>
<path d="M12.2372 24.0001C15.4736 24.0001 18.203 22.9374 20.1916 21.1032L16.3246 18.1048C15.2487 18.8368 13.8598 19.2512 12.2416 19.2512C9.11096 19.2512 6.45653 17.1392 5.50412 14.2996H1.51367V17.3905C3.55078 21.4427 7.69997 24.0001 12.2372 24.0001Z" fill="#272D37"/>
<path d="M5.49984 14.3C4.99718 12.8096 4.99718 11.1958 5.49984 9.70544V6.6145H1.51381C-0.188196 10.0053 -0.188196 14.0001 1.51381 17.3909L5.49984 14.3Z" fill="#272D37"/>
<path d="M12.2372 4.74942C13.948 4.72296 15.6015 5.36672 16.8405 6.54842L20.2666 3.12237C18.0972 1.08526 15.2179 -0.0347101 12.2372 0.000564525C7.69997 0.000564525 3.55078 2.55798 1.51367 6.61456L5.49971 9.70551C6.44772 6.86149 9.10654 4.74942 12.2372 4.74942Z" fill="#272D37"/>
</svg>
