<svg width="24" height="24" viewBox="0 0 24 24" fill="none" xmlns="http://www.w3.org/2000/svg">
<path d="M23.7628 12.2758C23.7628 11.46 23.6967 10.6399 23.5556 9.8374H12.2368V14.4584H18.7185C18.4496 15.9487 17.5853 17.2671 16.3199 18.1049V21.1032H20.1869C22.4577 19.0132 23.7628 15.9267 23.7628 12.2758Z" fill="white"/>
<path d="M12.2373 24.0001C15.4737 24.0001 18.2031 22.9374 20.1917 21.1032L16.3247 18.1048C15.2489 18.8368 13.8599 19.2512 12.2417 19.2512C9.11108 19.2512 6.45666 17.1392 5.50424 14.2996H1.51379V17.3905C3.55091 21.4427 7.70009 24.0001 12.2373 24.0001Z" fill="white"/>
<path d="M5.49972 14.3C4.99706 12.8096 4.99706 11.1958 5.49972 9.70544V6.6145H1.51368C-0.188318 10.0053 -0.188318 14.0001 1.51368 17.3909L5.49972 14.3Z" fill="white"/>
<path d="M12.2373 4.74942C13.9481 4.72296 15.6016 5.36672 16.8406 6.54842L20.2667 3.12237C18.0973 1.08526 15.218 -0.0347101 12.2373 0.000564525C7.70009 0.000564525 3.55091 2.55798 1.51379 6.61456L5.49983 9.70551C6.44784 6.86149 9.10667 4.74942 12.2373 4.74942Z" fill="white"/>
</svg>
