<svg width="22" height="23" viewBox="0 0 22 23" fill="none" xmlns="http://www.w3.org/2000/svg">
<path d="M4.08098 18.773L3.72417 19.5279H3.72417L4.08098 18.773ZM4.08098 11.1636L4.4378 11.9186L4.08098 11.1636ZM4.7315 11.0354L4.86631 10.2113L4.7315 11.0354ZM5.33813 11.4196L6.02554 10.9456H6.02554L5.33813 11.4196ZM4.7315 18.9012L4.86631 19.7253L4.7315 18.9012ZM5.33813 18.517L4.65073 18.0429L4.65073 18.0429L5.33813 18.517ZM17.9193 18.773L18.2762 19.5279H18.2762L17.9193 18.773ZM17.9193 11.1636L17.5625 11.9186L17.9193 11.1636ZM17.2688 11.0354L17.134 10.2113L17.2688 11.0354ZM16.6622 11.4196L15.9748 10.9456L16.6622 11.4196ZM17.2688 18.9012L17.134 19.7253L17.2688 18.9012ZM16.6622 18.517L17.3496 18.0429L17.3496 18.0429L16.6622 18.517ZM4.4378 18.018C3.43603 17.5445 2.6685 16.3879 2.6685 14.9683H0.998496C0.998496 16.9729 2.08532 18.7533 3.72417 19.5279L4.4378 18.018ZM2.6685 14.9683C2.6685 13.5487 3.43603 12.3921 4.4378 11.9186L3.72417 10.4087C2.08532 11.1833 0.998496 12.9637 0.998496 14.9683H2.6685ZM6.33516 17.6266V12.31H4.66516V17.6266H6.33516ZM4.4378 11.9186C4.50387 11.8873 4.5391 11.8709 4.56827 11.8587C4.59356 11.8482 4.59687 11.8484 4.58842 11.8504C4.5771 11.8531 4.56496 11.8545 4.5575 11.8546C4.55273 11.8546 4.56301 11.8539 4.59668 11.8594L4.86631 10.2113C4.64272 10.1748 4.42596 10.1718 4.19723 10.2269C4.00054 10.2743 3.8263 10.3605 3.72417 10.4087L4.4378 11.9186ZM6.33516 12.31C6.33516 11.9317 6.36096 11.432 6.02554 10.9456L4.65073 11.8937C4.65557 11.9007 4.65338 11.8987 4.65063 11.8914C4.64827 11.8851 4.6505 11.888 4.65368 11.9098C4.65729 11.9345 4.66094 11.9747 4.663 12.0443C4.66509 12.115 4.66516 12.1973 4.66516 12.31H6.33516ZM4.59668 11.8594C4.57184 11.8554 4.55689 11.8507 4.55334 11.8496C4.5491 11.8482 4.55027 11.8484 4.55679 11.8512C4.57068 11.8573 4.59284 11.8687 4.61843 11.8849C4.64403 11.9011 4.66377 11.9163 4.6752 11.9262C4.68056 11.9309 4.68119 11.9319 4.67815 11.9287C4.67561 11.9259 4.66502 11.9144 4.65073 11.8937L6.02554 10.9456C5.87901 10.7331 5.66845 10.5731 5.51206 10.4741C5.35566 10.375 5.12104 10.253 4.86631 10.2113L4.59668 11.8594ZM3.72417 19.5279C3.8263 19.5762 4.00054 19.6623 4.19723 19.7097C4.42596 19.7648 4.64272 19.7618 4.86631 19.7253L4.59668 18.0772C4.56301 18.0827 4.55273 18.082 4.5575 18.082C4.56496 18.0821 4.5771 18.0835 4.58842 18.0862C4.59687 18.0882 4.59356 18.0884 4.56826 18.0779C4.5391 18.0657 4.50387 18.0493 4.4378 18.018L3.72417 19.5279ZM4.66516 17.6266C4.66516 17.7393 4.66509 17.8216 4.663 17.8923C4.66094 17.9619 4.65729 18.0021 4.65368 18.0268C4.6505 18.0486 4.64827 18.0515 4.65063 18.0452C4.65338 18.0379 4.65557 18.0359 4.65073 18.0429L6.02554 18.991C6.36096 18.5046 6.33516 18.0049 6.33516 17.6266H4.66516ZM4.86631 19.7253C5.12104 19.6836 5.35566 19.5616 5.51206 19.4625C5.66845 19.3635 5.87901 19.2035 6.02554 18.991L4.65073 18.0429C4.66502 18.0222 4.67561 18.0107 4.67815 18.008C4.68119 18.0047 4.68056 18.0057 4.6752 18.0104C4.66377 18.0203 4.64403 18.0355 4.61843 18.0517C4.59284 18.0679 4.57068 18.0793 4.55679 18.0854C4.55027 18.0882 4.5491 18.0884 4.55334 18.087C4.55689 18.0859 4.57184 18.0812 4.59668 18.0772L4.86631 19.7253ZM18.2762 19.5279C19.915 18.7533 21.0018 16.9729 21.0018 14.9683H19.3318C19.3318 16.3879 18.5643 17.5445 17.5625 18.018L18.2762 19.5279ZM21.0018 14.9683C21.0018 12.9637 19.915 11.1833 18.2762 10.4087L17.5625 11.9186C18.5643 12.3921 19.3318 13.5487 19.3318 14.9683H21.0018ZM17.3352 17.6266V12.31H15.6652V17.6266H17.3352ZM18.2762 10.4087C18.174 10.3605 17.9998 10.2743 17.8031 10.2269C17.5744 10.1718 17.3576 10.1748 17.134 10.2113L17.4036 11.8594C17.4373 11.8539 17.4476 11.8546 17.4428 11.8546C17.4354 11.8545 17.4232 11.8531 17.4119 11.8504C17.4035 11.8484 17.4068 11.8482 17.4321 11.8587C17.4612 11.8709 17.4965 11.8873 17.5625 11.9186L18.2762 10.4087ZM17.3352 12.31C17.3352 12.1973 17.3352 12.115 17.3373 12.0443C17.3394 11.9747 17.343 11.9345 17.3466 11.9098C17.3498 11.888 17.352 11.8851 17.3497 11.8914C17.3469 11.8987 17.3448 11.9007 17.3496 11.8937L15.9748 10.9456C15.6394 11.432 15.6652 11.9317 15.6652 12.31H17.3352ZM17.134 10.2113C16.8793 10.253 16.6447 10.375 16.4883 10.4741C16.3319 10.5731 16.1213 10.7331 15.9748 10.9456L17.3496 11.8937C17.3353 11.9144 17.3247 11.9259 17.3222 11.9287C17.3191 11.9319 17.3198 11.9309 17.3251 11.9262C17.3366 11.9163 17.3563 11.9011 17.3819 11.8849C17.4075 11.8687 17.4296 11.8573 17.4435 11.8512C17.4501 11.8484 17.4512 11.8482 17.447 11.8496C17.4434 11.8507 17.4285 11.8554 17.4036 11.8594L17.134 10.2113ZM17.5625 18.018C17.4965 18.0493 17.4612 18.0657 17.4321 18.0779C17.4068 18.0884 17.4035 18.0882 17.4119 18.0862C17.4232 18.0835 17.4354 18.0821 17.4428 18.082C17.4476 18.082 17.4373 18.0827 17.4036 18.0772L17.134 19.7253C17.3576 19.7618 17.5744 19.7648 17.8031 19.7097C17.9998 19.6623 18.174 19.5762 18.2762 19.5279L17.5625 18.018ZM15.6652 17.6266C15.6652 18.0049 15.6394 18.5046 15.9748 18.991L17.3496 18.0429C17.3448 18.0359 17.3469 18.0379 17.3497 18.0452C17.352 18.0515 17.3498 18.0486 17.3466 18.0268C17.343 18.0021 17.3394 17.9619 17.3373 17.8923C17.3352 17.8216 17.3352 17.7393 17.3352 17.6266H15.6652ZM17.4036 18.0772C17.4285 18.0812 17.4434 18.0859 17.447 18.087C17.4512 18.0884 17.45 18.0882 17.4435 18.0854C17.4296 18.0793 17.4075 18.0679 17.3819 18.0517C17.3563 18.0355 17.3366 18.0203 17.3251 18.0104C17.3198 18.0057 17.3191 18.0047 17.3222 18.008C17.3247 18.0107 17.3353 18.0222 17.3496 18.0429L15.9748 18.991C16.1213 19.2035 16.3319 19.3635 16.4883 19.4625C16.6447 19.5616 16.8793 19.6836 17.134 19.7253L17.4036 18.0772ZM4.50183 11.76C4.50183 8.17104 7.41123 5.26164 11.0002 5.26164V3.59164C6.48892 3.59164 2.83183 7.24872 2.83183 11.76H4.50183ZM11.0002 5.26164C14.5891 5.26164 17.4985 8.17104 17.4985 11.76H19.1685C19.1685 7.24872 15.5114 3.59164 11.0002 3.59164V5.26164Z" fill="#A5ACBA"/>
</svg>
