<svg width="22" height="22" viewBox="0 0 22 22" fill="none" xmlns="http://www.w3.org/2000/svg">
<path d="M4.08098 18.013L3.72417 18.7679H3.72417L4.08098 18.013ZM4.08098 10.4037L4.4378 11.1586L4.08098 10.4037ZM4.7315 10.2754L4.86631 9.4514L4.7315 10.2754ZM5.33813 10.6597L6.02554 10.1857H6.02554L5.33813 10.6597ZM4.7315 18.1413L4.86631 18.9653L4.7315 18.1413ZM5.33813 17.757L4.65073 17.283L4.65073 17.283L5.33813 17.757ZM17.9193 18.013L18.2762 18.7679H18.2762L17.9193 18.013ZM17.9193 10.4037L17.5625 11.1586L17.9193 10.4037ZM17.2688 10.2754L17.134 9.4514L17.2688 10.2754ZM16.6622 10.6597L15.9748 10.1857L16.6622 10.6597ZM17.2688 18.1413L17.134 18.9653L17.2688 18.1413ZM16.6622 17.757L17.3496 17.283L17.3496 17.283L16.6622 17.757ZM4.4378 17.2581C3.43603 16.7846 2.6685 15.628 2.6685 14.2084H0.998496C0.998496 16.2129 2.08532 17.9933 3.72417 18.7679L4.4378 17.2581ZM2.6685 14.2084C2.6685 12.7887 3.43603 11.6321 4.4378 11.1586L3.72417 9.64878C2.08532 10.4234 0.998496 12.2038 0.998496 14.2084H2.6685ZM6.33516 16.8667V11.55H4.66516V16.8667H6.33516ZM4.4378 11.1586C4.50387 11.1274 4.5391 11.1109 4.56827 11.0988C4.59356 11.0882 4.59687 11.0884 4.58842 11.0905C4.5771 11.0932 4.56496 11.0945 4.5575 11.0946C4.55273 11.0947 4.56301 11.094 4.59668 11.0995L4.86631 9.4514C4.64272 9.41482 4.42596 9.41182 4.19723 9.46694C4.00054 9.51433 3.8263 9.6005 3.72417 9.64878L4.4378 11.1586ZM6.33516 11.55C6.33516 11.1717 6.36096 10.6721 6.02554 10.1857L4.65073 11.1337C4.65557 11.1407 4.65338 11.1387 4.65063 11.1314C4.64827 11.1252 4.6505 11.1281 4.65368 11.1499C4.65729 11.1746 4.66094 11.2147 4.663 11.2843C4.66509 11.3551 4.66516 11.4373 4.66516 11.55H6.33516ZM4.59668 11.0995C4.57184 11.0954 4.55689 11.0908 4.55334 11.0896C4.5491 11.0883 4.55027 11.0884 4.55679 11.0913C4.57068 11.0973 4.59284 11.1087 4.61843 11.1249C4.64403 11.1411 4.66377 11.1563 4.6752 11.1663C4.68056 11.1709 4.68119 11.172 4.67815 11.1687C4.67561 11.166 4.66502 11.1544 4.65073 11.1337L6.02554 10.1857C5.87901 9.97319 5.66845 9.8132 5.51206 9.71413C5.35566 9.61507 5.12104 9.49307 4.86631 9.4514L4.59668 11.0995ZM3.72417 18.7679C3.8263 18.8162 4.00054 18.9024 4.19723 18.9498C4.42596 19.0049 4.64272 19.0019 4.86631 18.9653L4.59668 17.3172C4.56301 17.3227 4.55273 17.322 4.5575 17.3221C4.56496 17.3222 4.5771 17.3235 4.58842 17.3262C4.59687 17.3283 4.59356 17.3285 4.56826 17.3179C4.5391 17.3058 4.50387 17.2893 4.4378 17.2581L3.72417 18.7679ZM4.66516 16.8667C4.66516 16.9794 4.66509 17.0616 4.663 17.1324C4.66094 17.202 4.65729 17.2421 4.65368 17.2668C4.6505 17.2886 4.64827 17.2915 4.65063 17.2853C4.65338 17.278 4.65557 17.276 4.65073 17.283L6.02554 18.231C6.36096 17.7446 6.33516 17.245 6.33516 16.8667H4.66516ZM4.86631 18.9653C5.12104 18.9236 5.35566 18.8016 5.51206 18.7026C5.66845 18.6035 5.87901 18.4435 6.02554 18.231L4.65073 17.283C4.66502 17.2623 4.67561 17.2507 4.67815 17.248C4.68119 17.2448 4.68056 17.2458 4.6752 17.2504C4.66377 17.2604 4.64403 17.2756 4.61843 17.2918C4.59284 17.308 4.57068 17.3194 4.55679 17.3254C4.55027 17.3283 4.5491 17.3284 4.55334 17.3271C4.55689 17.3259 4.57184 17.3213 4.59668 17.3172L4.86631 18.9653ZM18.2762 18.7679C19.915 17.9933 21.0018 16.2129 21.0018 14.2084H19.3318C19.3318 15.628 18.5643 16.7846 17.5625 17.2581L18.2762 18.7679ZM21.0018 14.2084C21.0018 12.2038 19.915 10.4234 18.2762 9.64878L17.5625 11.1586C18.5643 11.6321 19.3318 12.7887 19.3318 14.2084H21.0018ZM17.3352 16.8667V11.55H15.6652V16.8667H17.3352ZM18.2762 9.64878C18.174 9.6005 17.9998 9.51433 17.8031 9.46694C17.5744 9.41182 17.3576 9.41482 17.134 9.4514L17.4036 11.0995C17.4373 11.094 17.4476 11.0947 17.4428 11.0946C17.4354 11.0945 17.4232 11.0932 17.4119 11.0905C17.4035 11.0884 17.4068 11.0882 17.4321 11.0988C17.4612 11.1109 17.4965 11.1274 17.5625 11.1586L18.2762 9.64878ZM17.3352 11.55C17.3352 11.4373 17.3352 11.3551 17.3373 11.2843C17.3394 11.2147 17.343 11.1746 17.3466 11.1499C17.3498 11.1281 17.352 11.1252 17.3497 11.1314C17.3469 11.1387 17.3448 11.1407 17.3496 11.1337L15.9748 10.1857C15.6394 10.6721 15.6652 11.1717 15.6652 11.55H17.3352ZM17.134 9.4514C16.8793 9.49307 16.6447 9.61507 16.4883 9.71413C16.3319 9.8132 16.1213 9.97319 15.9748 10.1857L17.3496 11.1337C17.3353 11.1544 17.3247 11.166 17.3222 11.1687C17.3191 11.172 17.3198 11.171 17.3251 11.1663C17.3366 11.1563 17.3563 11.1411 17.3819 11.1249C17.4075 11.1087 17.4296 11.0973 17.4435 11.0913C17.4501 11.0884 17.4512 11.0883 17.447 11.0896C17.4434 11.0908 17.4285 11.0954 17.4036 11.0995L17.134 9.4514ZM17.5625 17.2581C17.4965 17.2893 17.4612 17.3058 17.4321 17.3179C17.4068 17.3285 17.4035 17.3283 17.4119 17.3262C17.4232 17.3235 17.4354 17.3222 17.4428 17.3221C17.4476 17.322 17.4373 17.3227 17.4036 17.3172L17.134 18.9653C17.3576 19.0019 17.5744 19.0049 17.8031 18.9498C17.9998 18.9024 18.174 18.8162 18.2762 18.7679L17.5625 17.2581ZM15.6652 16.8667C15.6652 17.245 15.6394 17.7446 15.9748 18.231L17.3496 17.283C17.3448 17.276 17.3469 17.278 17.3497 17.2853C17.352 17.2915 17.3498 17.2886 17.3466 17.2668C17.343 17.2421 17.3394 17.202 17.3373 17.1324C17.3352 17.0616 17.3352 16.9794 17.3352 16.8667H15.6652ZM17.4036 17.3172C17.4285 17.3213 17.4434 17.3259 17.447 17.3271C17.4512 17.3284 17.45 17.3283 17.4435 17.3254C17.4296 17.3194 17.4075 17.308 17.3819 17.2918C17.3563 17.2756 17.3366 17.2604 17.3251 17.2504C17.3198 17.2458 17.3191 17.2448 17.3222 17.248C17.3247 17.2507 17.3353 17.2623 17.3496 17.283L15.9748 18.231C16.1213 18.4435 16.3319 18.6035 16.4883 18.7026C16.6447 18.8016 16.8793 18.9236 17.134 18.9653L17.4036 17.3172ZM4.50183 11C4.50183 7.41109 7.41123 4.50169 11.0002 4.50169V2.83169C6.48892 2.83169 2.83183 6.48877 2.83183 11H4.50183ZM11.0002 4.50169C14.5891 4.50169 17.4985 7.41109 17.4985 11H19.1685C19.1685 6.48877 15.5114 2.83169 11.0002 2.83169V4.50169Z" fill="#5F6D7E"/>
</svg>
