<svg width="22" height="23" viewBox="0 0 22 23" fill="none" xmlns="http://www.w3.org/2000/svg">
<g clip-path="url(#clip0_1121_119029)">
<path d="M8.24984 1.15674L13.7498 1.15674C16.3167 1.15674 17.6002 1.15674 18.5806 1.65629C19.443 2.09571 20.1442 2.79687 20.5836 3.65928C21.0832 4.63971 21.0832 5.92316 21.0832 8.49007V13.9901C21.0832 16.557 21.0832 17.8404 20.5836 18.8209C20.1442 19.6833 19.443 20.3844 18.5806 20.8239C17.6002 21.3234 16.3167 21.3234 13.7498 21.3234H8.24984M8.24984 1.15674C5.68293 1.15674 4.39948 1.15674 3.41905 1.65629C2.55664 2.09571 1.85548 2.79687 1.41606 3.65928C0.916504 4.63971 0.916504 5.92316 0.916504 8.49007L0.916504 13.9901C0.916504 16.557 0.916504 17.8404 1.41606 18.8209C1.85548 19.6833 2.55664 20.3844 3.41905 20.8239C4.39948 21.3234 5.68293 21.3234 8.24984 21.3234M8.24984 1.15674L8.24984 21.3234M8.24984 11.2401L21.9998 11.2401" stroke="#A5ACBA" stroke-width="1.67" stroke-linecap="round"/>
</g>
<defs>
<clipPath id="clip0_1121_119029">
<rect width="22" height="22" fill="white" transform="translate(0 0.23999)"/>
</clipPath>
</defs>
</svg>
