<svg width="22" height="23" viewBox="0 0 22 23" fill="none" xmlns="http://www.w3.org/2000/svg">
<path d="M4.29536 8.87542L13.3648 17.9448M15.2067 6.18287H16.057M15.2067 7.03313H16.057M17.8995 2.07336H11.4697C10.8684 2.07336 10.2917 2.31225 9.86648 2.73746L2.49759 10.1064C1.61213 10.9918 1.61213 12.4274 2.49759 13.3129L8.92732 19.7426C9.81277 20.6281 11.2484 20.6281 12.1338 19.7426L19.5027 12.3737C19.9279 11.9485 20.1668 11.3718 20.1668 10.7704V4.34072C20.1668 3.08849 19.1517 2.07336 17.8995 2.07336ZM16.7658 6.60807C16.7658 7.23418 16.2582 7.74175 15.6321 7.74175C15.006 7.74175 14.4984 7.23418 14.4984 6.60807C14.4984 5.98196 15.006 5.47439 15.6321 5.47439C16.2582 5.47439 16.7658 5.98196 16.7658 6.60807Z" stroke="#A5ACBA" stroke-width="1.67" stroke-linecap="round"/>
</svg>
