<svg width="22" height="22" viewBox="0 0 22 22" fill="none" xmlns="http://www.w3.org/2000/svg">
<g clip-path="url(#clip0_1016_50606)">
<path d="M4.29536 8.63543L13.3648 17.7048M15.2067 5.94288H16.057M15.2067 6.79314H16.057M17.8995 1.83337H11.4697C10.8684 1.83337 10.2917 2.07226 9.86648 2.49747L2.49759 9.86636C1.61213 10.7518 1.61213 12.1874 2.49759 13.0729L8.92732 19.5026C9.81277 20.3881 11.2484 20.3881 12.1338 19.5026L19.5027 12.1337C19.9279 11.7085 20.1668 11.1318 20.1668 10.5305V4.10073C20.1668 2.8485 19.1517 1.83337 17.8995 1.83337ZM16.7658 6.36808C16.7658 6.99419 16.2582 7.50176 15.6321 7.50176C15.006 7.50176 14.4984 6.99419 14.4984 6.36808C14.4984 5.74197 15.006 5.2344 15.6321 5.2344C16.2582 5.2344 16.7658 5.74197 16.7658 6.36808Z" stroke="#5F6D7E" stroke-width="1.67" stroke-linecap="round"/>
</g>
<defs>
<clipPath id="clip0_1016_50606">
<rect width="22" height="22" fill="white"/>
</clipPath>
</defs>
</svg>
