<svg width="48" height="48" viewBox="0 0 48 48" fill="none" xmlns="http://www.w3.org/2000/svg">
<path d="M15 17L22.7721 23.045C23.4943 23.6067 24.5057 23.6067 25.2279 23.045L33 17M17.2 32H30.8C31.9201 32 32.4802 32 32.908 31.782C33.2843 31.5903 33.5903 31.2843 33.782 30.908C34 30.4802 34 29.9201 34 28.8V19.2C34 18.0799 34 17.5198 33.782 17.092C33.5903 16.7157 33.2843 16.4097 32.908 16.218C32.4802 16 31.9201 16 30.8 16H17.2C16.0799 16 15.5198 16 15.092 16.218C14.7157 16.4097 14.4097 16.7157 14.218 17.092C14 17.5198 14 18.0799 14 19.2V28.8C14 29.9201 14 30.4802 14.218 30.908C14.4097 31.2843 14.7157 31.5903 15.092 31.782C15.5198 32 16.0799 32 17.2 32Z" stroke="#5F6D7E" stroke-width="2"/>
</svg>
