<svg width="24" height="28" viewBox="0 0 24 28" fill="none" xmlns="http://www.w3.org/2000/svg">
<path d="M0 1.5C0 0.671572 0.671573 0 1.5 0H15L24 9V26.5C24 27.3284 23.3284 28 22.5 28H1.5C0.671573 28 0 27.3284 0 26.5V1.5Z" fill="url(#paint0_linear_851_49322)"/>
<path d="M15 7.5V0L24 9H16.5C15.6716 9 15 8.32843 15 7.5Z" fill="#5725BA"/>
<path d="M4.66748 20V15.1H5.60548L7.69148 18.558H7.19448L9.24548 15.1H10.1765L10.1905 20H9.12648L9.11948 16.731H9.31548L7.67748 19.482H7.16648L5.49348 16.731H5.73148V20H4.66748Z" fill="white"/>
<path d="M11.553 20V15.1H13.674C14.1127 15.1 14.4907 15.1723 14.808 15.317C15.1254 15.457 15.3704 15.66 15.543 15.926C15.7157 16.192 15.802 16.5093 15.802 16.878C15.802 17.242 15.7157 17.557 15.543 17.823C15.3704 18.089 15.1254 18.2943 14.808 18.439C14.4907 18.579 14.1127 18.649 13.674 18.649H12.183L12.687 18.138V20H11.553ZM12.687 18.264L12.183 17.725H13.611C13.961 17.725 14.2224 17.6503 14.395 17.501C14.5677 17.3516 14.654 17.144 14.654 16.878C14.654 16.6073 14.5677 16.3973 14.395 16.248C14.2224 16.0986 13.961 16.024 13.611 16.024H12.183L12.687 15.485V18.264Z" fill="white"/>
<path d="M16.3041 18.971V18.208L18.6141 15.1H19.8041L17.5431 18.208L16.9901 18.047H20.8471V18.971H16.3041ZM18.9431 20V18.971L18.9781 18.047V17.13H20.0491V20H18.9431Z" fill="white"/>
<defs>
<linearGradient id="paint0_linear_851_49322" x1="12" y1="0" x2="12" y2="28" gradientUnits="userSpaceOnUse">
<stop stop-color="#9969FA"/>
<stop offset="1" stop-color="#7E4BE4"/>
</linearGradient>
</defs>
</svg>
