<svg width="48" height="48" viewBox="0 0 48 48" fill="none" xmlns="http://www.w3.org/2000/svg">
<path d="M21 31.6459C21.7329 32.4763 22.8053 33 24 33C25.1947 33 26.2671 32.4763 27 31.6459M28 13.9355C30.387 15.1218 32.1726 17.3366 32.777 20M29.9974 25.1809V22.0001C29.9974 18.6778 27.3223 16.0001 24 16.0001C20.6777 16.0001 17.9664 18.5637 17.9664 22.0001V25.1594C17.9664 25.6426 17.8911 26.1226 17.7433 26.5809L17.0049 28.8724C16.9847 28.9352 17.0298 29 17.0938 29H30.8632C30.9308 29 30.9788 28.9341 30.958 28.8698L30.2146 26.5627C30.0707 26.1162 29.9974 25.65 29.9974 25.1809Z" stroke="#5F6D7E" stroke-width="2" stroke-linecap="round"/>
</svg>
