<svg width="61" height="24" viewBox="0 0 61 24" fill="none" xmlns="http://www.w3.org/2000/svg">
<rect width="61" height="24" rx="5" fill="#F7F7F8"/>
<path d="M17.9631 11.9091C17.9631 12.9962 17.7642 13.9309 17.3665 14.7131C16.9688 15.492 16.4235 16.0919 15.7308 16.5128C15.0414 16.9304 14.2576 17.1392 13.3793 17.1392C12.4976 17.1392 11.7105 16.9304 11.0178 16.5128C10.3284 16.0919 9.7848 15.4903 9.38707 14.7081C8.98935 13.9259 8.79048 12.9929 8.79048 11.9091C8.79048 10.822 8.98935 9.88897 9.38707 9.11008C9.7848 8.32789 10.3284 7.72798 11.0178 7.31037C11.7105 6.88944 12.4976 6.67898 13.3793 6.67898C14.2576 6.67898 15.0414 6.88944 15.7308 7.31037C16.4235 7.72798 16.9688 8.32789 17.3665 9.11008C17.7642 9.88897 17.9631 10.822 17.9631 11.9091ZM16.4418 11.9091C16.4418 11.0805 16.3075 10.3828 16.0391 9.81605C15.7739 9.24598 15.4093 8.8151 14.9453 8.52344C14.4846 8.22846 13.9626 8.08097 13.3793 8.08097C12.7926 8.08097 12.2689 8.22846 11.8082 8.52344C11.3475 8.8151 10.983 9.24598 10.7145 9.81605C10.4493 10.3828 10.3168 11.0805 10.3168 11.9091C10.3168 12.7377 10.4493 13.437 10.7145 14.0071C10.983 14.5739 11.3475 15.0047 11.8082 15.2997C12.2689 15.5914 12.7926 15.7372 13.3793 15.7372C13.9626 15.7372 14.4846 15.5914 14.9453 15.2997C15.4093 15.0047 15.7739 14.5739 16.0391 14.0071C16.3075 13.437 16.4418 12.7377 16.4418 11.9091ZM23.2933 9.36364V10.5568H18.9779V9.36364H23.2933ZM20.1612 17V8.47869C20.1612 8.00142 20.2656 7.60535 20.4744 7.29048C20.6832 6.9723 20.96 6.73532 21.3047 6.57955C21.6493 6.42045 22.0239 6.34091 22.4282 6.34091C22.7265 6.34091 22.9817 6.36577 23.1939 6.41548C23.406 6.46188 23.5634 6.50497 23.6662 6.54474L23.3181 7.74787C23.2485 7.72798 23.1591 7.70478 23.0497 7.67827C22.9403 7.64844 22.8077 7.63352 22.652 7.63352C22.2907 7.63352 22.0322 7.72301 21.8764 7.90199C21.7239 8.08097 21.6477 8.33949 21.6477 8.67756V17H20.1612ZM28.3613 9.36364V10.5568H24.0459V9.36364H28.3613ZM25.2292 17V8.47869C25.2292 8.00142 25.3336 7.60535 25.5424 7.29048C25.7512 6.9723 26.0279 6.73532 26.3726 6.57955C26.7173 6.42045 27.0918 6.34091 27.4962 6.34091C27.7945 6.34091 28.0497 6.36577 28.2618 6.41548C28.4739 6.46188 28.6314 6.50497 28.7341 6.54474L28.3861 7.74787C28.3165 7.72798 28.227 7.70478 28.1176 7.67827C28.0083 7.64844 27.8757 7.63352 27.7199 7.63352C27.3587 7.63352 27.1001 7.72301 26.9444 7.90199C26.7919 8.08097 26.7157 8.33949 26.7157 8.67756V17H25.2292ZM31.2815 6.81818V17H29.795V6.81818H31.2815ZM33.1813 17V9.36364H34.6678V17H33.1813ZM33.932 8.18537C33.6735 8.18537 33.4514 8.09919 33.2658 7.92685C33.0835 7.75118 32.9924 7.54238 32.9924 7.30043C32.9924 7.05516 33.0835 6.84635 33.2658 6.67401C33.4514 6.49834 33.6735 6.41051 33.932 6.41051C34.1906 6.41051 34.411 6.49834 34.5933 6.67401C34.7789 6.84635 34.8717 7.05516 34.8717 7.30043C34.8717 7.54238 34.7789 7.75118 34.5933 7.92685C34.411 8.09919 34.1906 8.18537 33.932 8.18537ZM38.0542 12.4659V17H36.5676V9.36364H37.9945V10.6065H38.089C38.2646 10.2022 38.5397 9.87737 38.9142 9.6321C39.2921 9.38684 39.7677 9.2642 40.3411 9.2642C40.8614 9.2642 41.3172 9.37358 41.7083 9.59233C42.0994 9.80777 42.4026 10.1293 42.6181 10.5568C42.8335 10.9844 42.9412 11.513 42.9412 12.1428V17H41.4547V12.3217C41.4547 11.7682 41.3105 11.3357 41.0222 11.0241C40.7338 10.7093 40.3378 10.5518 39.834 10.5518C39.4893 10.5518 39.1827 10.6264 38.9142 10.7756C38.6491 10.9247 38.4386 11.1435 38.2828 11.4318C38.1304 11.7169 38.0542 12.0616 38.0542 12.4659ZM48.126 17.1541C47.3737 17.1541 46.7257 16.9934 46.1821 16.6719C45.6419 16.3471 45.2243 15.8913 44.9293 15.3047C44.6376 14.7147 44.4918 14.0237 44.4918 13.2315C44.4918 12.4493 44.6376 11.7599 44.9293 11.1634C45.2243 10.5668 45.6353 10.1011 46.1623 9.76633C46.6926 9.43158 47.3123 9.2642 48.0216 9.2642C48.4525 9.2642 48.8701 9.33546 49.2745 9.47798C49.6788 9.6205 50.0418 9.84422 50.3632 10.1491C50.6847 10.4541 50.9383 10.8501 51.1239 11.3374C51.3095 11.8213 51.4023 12.4096 51.4023 13.1023V13.6293H45.332V12.5156H49.9456C49.9456 12.1245 49.8661 11.7782 49.707 11.4766C49.5479 11.1716 49.3242 10.9313 49.0358 10.7557C48.7508 10.58 48.416 10.4922 48.0316 10.4922C47.614 10.4922 47.2494 10.5949 46.9378 10.8004C46.6296 11.0026 46.3909 11.2678 46.2219 11.5959C46.0562 11.9207 45.9733 12.2737 45.9733 12.6548V13.5249C45.9733 14.0353 46.0628 14.4695 46.2418 14.8274C46.4241 15.1854 46.6776 15.4588 47.0025 15.6477C47.3273 15.8333 47.7068 15.9261 48.1409 15.9261C48.4227 15.9261 48.6795 15.8864 48.9115 15.8068C49.1436 15.724 49.3441 15.6013 49.5131 15.4389C49.6821 15.2765 49.8114 15.076 49.9009 14.8374L51.3078 15.0909C51.1952 15.5052 50.993 15.8681 50.7013 16.1797C50.413 16.4879 50.05 16.7282 49.6125 16.9006C49.1784 17.0696 48.6828 17.1541 48.126 17.1541Z" fill="#272D37"/>
</svg>
