<svg width="59" height="24" viewBox="0 0 59 24" fill="none" xmlns="http://www.w3.org/2000/svg">
<rect width="59" height="24" rx="5" fill="#F5FAFF"/>
<path d="M17.9631 11.9091C17.9631 12.9962 17.7642 13.9309 17.3665 14.7131C16.9688 15.492 16.4235 16.0919 15.7308 16.5128C15.0414 16.9304 14.2576 17.1392 13.3793 17.1392C12.4976 17.1392 11.7105 16.9304 11.0178 16.5128C10.3284 16.0919 9.7848 15.4903 9.38707 14.7081C8.98935 13.9259 8.79048 12.9929 8.79048 11.9091C8.79048 10.822 8.98935 9.88897 9.38707 9.11008C9.7848 8.32789 10.3284 7.72798 11.0178 7.31037C11.7105 6.88944 12.4976 6.67898 13.3793 6.67898C14.2576 6.67898 15.0414 6.88944 15.7308 7.31037C16.4235 7.72798 16.9688 8.32789 17.3665 9.11008C17.7642 9.88897 17.9631 10.822 17.9631 11.9091ZM16.4418 11.9091C16.4418 11.0805 16.3075 10.3828 16.0391 9.81605C15.7739 9.24598 15.4093 8.8151 14.9453 8.52344C14.4846 8.22846 13.9626 8.08097 13.3793 8.08097C12.7926 8.08097 12.2689 8.22846 11.8082 8.52344C11.3475 8.8151 10.983 9.24598 10.7145 9.81605C10.4493 10.3828 10.3168 11.0805 10.3168 11.9091C10.3168 12.7377 10.4493 13.437 10.7145 14.0071C10.983 14.5739 11.3475 15.0047 11.8082 15.2997C12.2689 15.5914 12.7926 15.7372 13.3793 15.7372C13.9626 15.7372 14.4846 15.5914 14.9453 15.2997C15.4093 15.0047 15.7739 14.5739 16.0391 14.0071C16.3075 13.437 16.4418 12.7377 16.4418 11.9091ZM21.1456 12.4659V17H19.6591V9.36364H21.0859V10.6065H21.1804C21.356 10.2022 21.6311 9.87737 22.0056 9.6321C22.3835 9.38684 22.8591 9.2642 23.4325 9.2642C23.9529 9.2642 24.4086 9.37358 24.7997 9.59233C25.1908 9.80777 25.494 10.1293 25.7095 10.5568C25.9249 10.9844 26.0326 11.513 26.0326 12.1428V17H24.5461V12.3217C24.5461 11.7682 24.402 11.3357 24.1136 11.0241C23.8252 10.7093 23.4292 10.5518 22.9254 10.5518C22.5807 10.5518 22.2741 10.6264 22.0056 10.7756C21.7405 10.9247 21.53 11.1435 21.3743 11.4318C21.2218 11.7169 21.1456 12.0616 21.1456 12.4659ZM29.4127 6.81818V17H27.9262V6.81818H29.4127ZM31.3126 17V9.36364H32.7991V17H31.3126ZM32.0633 8.18537C31.8048 8.18537 31.5827 8.09919 31.3971 7.92685C31.2148 7.75118 31.1237 7.54238 31.1237 7.30043C31.1237 7.05516 31.2148 6.84635 31.3971 6.67401C31.5827 6.49834 31.8048 6.41051 32.0633 6.41051C32.3218 6.41051 32.5422 6.49834 32.7245 6.67401C32.9101 6.84635 33.0029 7.05516 33.0029 7.30043C33.0029 7.54238 32.9101 7.75118 32.7245 7.92685C32.5422 8.09919 32.3218 8.18537 32.0633 8.18537ZM36.1854 12.4659V17H34.6989V9.36364H36.1257V10.6065H36.2202C36.3959 10.2022 36.671 9.87737 37.0455 9.6321C37.4233 9.38684 37.8989 9.2642 38.4723 9.2642C38.9927 9.2642 39.4484 9.37358 39.8395 9.59233C40.2306 9.80777 40.5339 10.1293 40.7493 10.5568C40.9648 10.9844 41.0725 11.513 41.0725 12.1428V17H39.586V12.3217C39.586 11.7682 39.4418 11.3357 39.1534 11.0241C38.8651 10.7093 38.469 10.5518 37.9652 10.5518C37.6205 10.5518 37.314 10.6264 37.0455 10.7756C36.7803 10.9247 36.5699 11.1435 36.4141 11.4318C36.2616 11.7169 36.1854 12.0616 36.1854 12.4659ZM46.2573 17.1541C45.5049 17.1541 44.8569 16.9934 44.3134 16.6719C43.7731 16.3471 43.3555 15.8913 43.0605 15.3047C42.7689 14.7147 42.623 14.0237 42.623 13.2315C42.623 12.4493 42.7689 11.7599 43.0605 11.1634C43.3555 10.5668 43.7665 10.1011 44.2935 9.76633C44.8238 9.43158 45.4436 9.2642 46.1529 9.2642C46.5837 9.2642 47.0014 9.33546 47.4057 9.47798C47.8101 9.6205 48.173 9.84422 48.4945 10.1491C48.816 10.4541 49.0695 10.8501 49.2551 11.3374C49.4408 11.8213 49.5336 12.4096 49.5336 13.1023V13.6293H43.4632V12.5156H48.0769C48.0769 12.1245 47.9973 11.7782 47.8382 11.4766C47.6792 11.1716 47.4554 10.9313 47.1671 10.7557C46.882 10.58 46.5473 10.4922 46.1628 10.4922C45.7452 10.4922 45.3806 10.5949 45.0691 10.8004C44.7608 11.0026 44.5222 11.2678 44.3532 11.5959C44.1874 11.9207 44.1046 12.2737 44.1046 12.6548V13.5249C44.1046 14.0353 44.1941 14.4695 44.373 14.8274C44.5553 15.1854 44.8089 15.4588 45.1337 15.6477C45.4585 15.8333 45.838 15.9261 46.2722 15.9261C46.5539 15.9261 46.8108 15.8864 47.0428 15.8068C47.2748 15.724 47.4753 15.6013 47.6444 15.4389C47.8134 15.2765 47.9426 15.076 48.0321 14.8374L49.4391 15.0909C49.3264 15.5052 49.1242 15.8681 48.8326 16.1797C48.5442 16.4879 48.1813 16.7282 47.7438 16.9006C47.3096 17.0696 46.8141 17.1541 46.2573 17.1541Z" fill="#437EF7"/>
</svg>
