<svg width="16" height="16" viewBox="0 0 16 16" fill="none" xmlns="http://www.w3.org/2000/svg">
<path d="M13.915 6.5C13.915 6.96116 14.2888 7.335 14.75 7.335C15.2112 7.335 15.585 6.96116 15.585 6.5H13.915ZM9.5 0.415C9.03884 0.415 8.665 0.788842 8.665 1.25C8.665 1.71116 9.03884 2.085 9.5 2.085V0.415ZM14.6356 1.82331L15.3795 1.44423L15.3795 1.44423L14.6356 1.82331ZM14.1767 1.36444L14.5558 0.620453L14.5558 0.620453L14.1767 1.36444ZM14.2904 2.89043C14.6165 2.56435 14.6165 2.03565 14.2904 1.70957C13.9643 1.38348 13.4357 1.38348 13.1096 1.70957L14.2904 2.89043ZM7.40957 7.40957C7.08348 7.73565 7.08348 8.26435 7.40957 8.59043C7.73565 8.91652 8.26435 8.91652 8.59043 8.59043L7.40957 7.40957ZM2.64605 14.4713L3.02513 13.7273H3.02513L2.64605 14.4713ZM1.52868 13.354L0.784686 13.733L0.784686 13.733L1.52868 13.354ZM12.2213 13.354L11.4773 12.9749L12.2213 13.354ZM11.104 14.4713L10.7249 13.7273L11.104 14.4713ZM2.64605 3.77868L2.26696 3.03469L2.64605 3.77868ZM1.52868 4.89605L0.784686 4.51696V4.51696L1.52868 4.89605ZM6.875 4.335C7.33616 4.335 7.71 3.96116 7.71 3.5C7.71 3.03884 7.33616 2.665 6.875 2.665V4.335ZM13.335 9.125C13.335 8.66384 12.9612 8.29 12.5 8.29C12.0388 8.29 11.665 8.66384 11.665 9.125H13.335ZM15.585 6.5V2.93H13.915V6.5H15.585ZM13.07 0.415H9.5V2.085H13.07V0.415ZM15.585 2.93C15.585 2.64975 15.5856 2.38934 15.5679 2.17237C15.5494 1.94564 15.5067 1.69386 15.3795 1.44423L13.8916 2.20239C13.8788 2.17737 13.8934 2.18491 13.9035 2.30836C13.9144 2.44156 13.915 2.62219 13.915 2.93H15.585ZM13.07 2.085C13.3778 2.085 13.5584 2.08565 13.6916 2.09653C13.8151 2.10662 13.8226 2.12119 13.7976 2.10843L14.5558 0.620453C14.3061 0.493257 14.0544 0.450603 13.8276 0.432078C13.6107 0.414351 13.3502 0.415 13.07 0.415V2.085ZM15.3795 1.44423C15.1988 1.08955 14.9105 0.801176 14.5558 0.620453L13.7976 2.10843C13.8381 2.12904 13.871 2.16193 13.8916 2.20239L15.3795 1.44423ZM13.1096 1.70957L7.40957 7.40957L8.59043 8.59043L14.2904 2.89043L13.1096 1.70957ZM8.40909 13.915H5.34091V15.585H8.40909V13.915ZM2.085 10.6591V7.59091H0.415V10.6591H2.085ZM5.34091 13.915C4.61116 13.915 4.11406 13.9144 3.72959 13.8829C3.35487 13.8523 3.16127 13.7967 3.02513 13.7273L2.26696 15.2153C2.67776 15.4246 3.11561 15.5083 3.5936 15.5474C4.06184 15.5856 4.63871 15.585 5.34091 15.585V13.915ZM0.415 10.6591C0.415 11.3613 0.414351 11.9382 0.452608 12.4064C0.491661 12.8844 0.575374 13.3222 0.784686 13.733L2.27267 12.9749C2.2033 12.8387 2.14768 12.6451 2.11706 12.2704C2.08565 11.8859 2.085 11.3888 2.085 10.6591H0.415ZM3.02513 13.7273C2.70115 13.5623 2.43774 13.2989 2.27267 12.9749L0.784686 13.733C1.10987 14.3712 1.62875 14.8901 2.26697 15.2153L3.02513 13.7273ZM11.665 10.6591C11.665 11.3888 11.6644 11.8859 11.6329 12.2704C11.6023 12.6451 11.5467 12.8387 11.4773 12.9749L12.9653 13.733C13.1746 13.3222 13.2583 12.8844 13.2974 12.4064C13.3356 11.9382 13.335 11.3613 13.335 10.6591H11.665ZM8.40909 15.585C9.11129 15.585 9.68816 15.5856 10.1564 15.5474C10.6344 15.5083 11.0722 15.4246 11.483 15.2153L10.7249 13.7273C10.5887 13.7967 10.3951 13.8523 10.0204 13.8829C9.63594 13.9144 9.13884 13.915 8.40909 13.915V15.585ZM11.4773 12.9749C11.3123 13.2989 11.0489 13.5623 10.7249 13.7273L11.483 15.2153C12.1212 14.8901 12.6401 14.3712 12.9653 13.733L11.4773 12.9749ZM5.34091 2.665C4.63871 2.665 4.06184 2.66435 3.5936 2.70261C3.11561 2.74166 2.67776 2.82537 2.26696 3.03469L3.02513 4.52267C3.16127 4.4533 3.35487 4.39768 3.72959 4.36706C4.11406 4.33565 4.61115 4.335 5.34091 4.335V2.665ZM2.085 7.59091C2.085 6.86116 2.08565 6.36406 2.11706 5.97959C2.14768 5.60487 2.2033 5.41126 2.27267 5.27513L0.784686 4.51696C0.575374 4.92776 0.491661 5.36561 0.452608 5.8436C0.414351 6.31184 0.415 6.88871 0.415 7.59091H2.085ZM2.26696 3.03469C1.62875 3.35987 1.10987 3.87875 0.784686 4.51696L2.27267 5.27513C2.43774 4.95115 2.70115 4.68774 3.02513 4.52267L2.26696 3.03469ZM5.34091 4.335H6.875V2.665H5.34091V4.335ZM11.665 9.125V10.6591H13.335V9.125H11.665Z" fill="#437EF7"/>
</svg>
