<svg width="24" height="28" viewBox="0 0 24 28" fill="none" xmlns="http://www.w3.org/2000/svg">
<path d="M0 1.5C0 0.671572 0.671573 0 1.5 0H15L24 9V26.5C24 27.3284 23.3284 28 22.5 28H1.5C0.671573 28 0 27.3284 0 26.5V1.5Z" fill="url(#paint0_linear_851_2704)"/>
<path d="M15 7.5V0L24 9H16.5C15.6716 9 15 8.32843 15 7.5Z" fill="#BA253D"/>
<path d="M4.72461 20V15.1H6.84561C7.28428 15.1 7.66228 15.1723 7.97961 15.317C8.29694 15.457 8.54194 15.66 8.71461 15.926C8.88728 16.192 8.97361 16.5093 8.97361 16.878C8.97361 17.242 8.88728 17.557 8.71461 17.823C8.54194 18.089 8.29694 18.2943 7.97961 18.439C7.66228 18.579 7.28428 18.649 6.84561 18.649H5.35461L5.85861 18.138V20H4.72461ZM5.85861 18.264L5.35461 17.725H6.78261C7.13261 17.725 7.39394 17.6503 7.56661 17.501C7.73928 17.3516 7.82561 17.144 7.82561 16.878C7.82561 16.6073 7.73928 16.3973 7.56661 16.248C7.39394 16.0986 7.13261 16.024 6.78261 16.024H5.35461L5.85861 15.485V18.264Z" fill="white"/>
<path d="M9.9832 20V15.1H12.2092C12.7412 15.1 13.2102 15.2026 13.6162 15.408C14.0222 15.6086 14.3395 15.891 14.5682 16.255C14.7969 16.619 14.9112 17.0506 14.9112 17.55C14.9112 18.0446 14.7969 18.4763 14.5682 18.845C14.3395 19.209 14.0222 19.4936 13.6162 19.699C13.2102 19.8996 12.7412 20 12.2092 20H9.9832ZM11.1172 19.069H12.1532C12.4799 19.069 12.7622 19.0083 13.0002 18.887C13.2429 18.761 13.4295 18.5836 13.5602 18.355C13.6955 18.1263 13.7632 17.858 13.7632 17.55C13.7632 17.2373 13.6955 16.969 13.5602 16.745C13.4295 16.5163 13.2429 16.3413 13.0002 16.22C12.7622 16.094 12.4799 16.031 12.1532 16.031H11.1172V19.069Z" fill="white"/>
<path d="M17.0164 17.305H19.3684V18.215H17.0164V17.305ZM17.1004 20H15.9664V15.1H19.6694V16.01H17.1004V20Z" fill="white"/>
<defs>
<linearGradient id="paint0_linear_851_2704" x1="12" y1="0" x2="12" y2="28" gradientUnits="userSpaceOnUse">
<stop stop-color="#FA6976"/>
<stop offset="1" stop-color="#E44B5F"/>
</linearGradient>
</defs>
</svg>
