<svg width="48" height="48" viewBox="0 0 48 48" fill="none" xmlns="http://www.w3.org/2000/svg">
<path d="M21.0003 15.7583C21.0003 14.7872 21.7875 14 22.7586 14H25.242C26.2131 14 27.0003 14.7872 27.0003 15.7583C27.0003 17.1119 28.4656 17.9578 29.6378 17.281C30.4788 16.7955 31.5542 17.0836 32.0398 17.9246L33.2814 20.0752C33.767 20.9162 33.4788 21.9916 32.6378 22.4772C31.4656 23.154 31.4656 24.8459 32.6378 25.5227C33.4788 26.0082 33.767 27.0836 33.2814 27.9246L32.0398 30.0752C31.5542 30.9162 30.4788 31.2044 29.6378 30.7188C28.4656 30.0421 27.0003 30.8881 27.0003 32.2416C27.0003 33.2127 26.2131 34 25.242 34H22.7587C21.7876 34 21.0003 33.2127 21.0003 32.2416C21.0003 30.8881 19.5351 30.0421 18.3628 30.7188C17.5219 31.2044 16.4465 30.9162 15.9609 30.0753L14.7193 27.9246C14.2337 27.0836 14.5219 26.0082 15.3629 25.5227C16.5351 24.8459 16.5351 23.154 15.3629 22.4772C14.5219 21.9916 14.2337 20.9162 14.7193 20.0752L15.9609 17.9246C16.4465 17.0836 17.5219 16.7955 18.3629 17.281C19.5351 17.9578 21.0003 17.1118 21.0003 15.7583Z" stroke="#5F6D7E" stroke-width="2"/>
<path d="M28.0003 24C28.0003 26.2091 26.2095 28 24.0003 28C21.7912 28 20.0003 26.2091 20.0003 24C20.0003 21.7909 21.7912 20 24.0003 20C26.2095 20 28.0003 21.7909 28.0003 24Z" stroke="#5F6D7E" stroke-width="2"/>
</svg>
