<svg width="22" height="23" viewBox="0 0 22 23" fill="none" xmlns="http://www.w3.org/2000/svg">
<path d="M13.6799 7.25754L11.7893 3.96652C11.4383 3.35547 10.5577 3.35254 10.2026 3.96125L8.20766 7.38122C7.94343 7.8342 7.49785 8.15234 6.98362 8.25519L4.25771 8.80037C3.55171 8.94157 3.27661 9.80423 3.77053 10.3281L5.74212 12.4192C6.16371 12.8663 6.33323 13.495 6.19358 14.0934L5.30117 17.918C5.11773 18.7042 5.96665 19.3265 6.66118 18.9149L10.0659 16.8973C10.6422 16.5558 11.3589 16.5558 11.9352 16.8973L15.3399 18.9149C16.0344 19.3265 16.8833 18.7042 16.6999 17.918L15.7996 14.06C15.6643 13.48 15.8191 12.8705 16.2148 12.4254L18.1888 10.2046C18.6591 9.67546 18.3776 8.83557 17.6834 8.69672L14.91 8.14204C14.3916 8.03836 13.9432 7.71595 13.6799 7.25754Z" stroke="#A5ACBA" stroke-width="1.67" stroke-miterlimit="10"/>
</svg>
