<svg width="22" height="22" viewBox="0 0 22 22" fill="none" xmlns="http://www.w3.org/2000/svg">
<path d="M13.6799 6.49747L11.7893 3.20645C11.4383 2.5954 10.5577 2.59247 10.2026 3.20118L8.20766 6.62115C7.94343 7.07413 7.49785 7.39227 6.98362 7.49512L4.25771 8.0403C3.55171 8.1815 3.27661 9.04416 3.77053 9.56801L5.74212 11.6591C6.16371 12.1062 6.33323 12.7349 6.19358 13.3334L5.30117 17.158C5.11773 17.9442 5.96665 18.5664 6.66118 18.1549L10.0659 16.1373C10.6422 15.7958 11.3589 15.7958 11.9352 16.1373L15.3399 18.1549C16.0344 18.5664 16.8833 17.9442 16.6999 17.158L15.7996 13.2999C15.6643 12.7199 15.8191 12.1104 16.2148 11.6653L18.1888 9.44452C18.6591 8.91539 18.3776 8.07549 17.6834 7.93665L14.91 7.38197C14.3916 7.27829 13.9432 6.95588 13.6799 6.49747Z" stroke="#5F6D7E" stroke-width="1.67" stroke-miterlimit="10"/>
</svg>
