<svg width="21" height="18" viewBox="0 0 21 18" fill="none" xmlns="http://www.w3.org/2000/svg">
<rect width="21" height="18" rx="9" fill="#EFEFF1"/>
<path d="M10.201 14.1293C9.567 14.1293 9.00071 14.02 8.50213 13.8015C8.00663 13.583 7.61423 13.2798 7.32493 12.892C7.03871 12.5012 6.88482 12.0488 6.86328 11.5348H8.31286C8.33132 11.8149 8.42519 12.058 8.59446 12.2642C8.76681 12.4673 8.99148 12.6243 9.26847 12.7351C9.54545 12.8459 9.85322 12.9013 10.1918 12.9013C10.5642 12.9013 10.8935 12.8366 11.1797 12.7074C11.469 12.5781 11.6952 12.3981 11.8583 12.1673C12.0214 11.9334 12.103 11.6641 12.103 11.3594C12.103 11.0424 12.0214 10.7638 11.8583 10.5238C11.6983 10.2807 11.4628 10.0898 11.152 9.95135C10.8442 9.81286 10.4718 9.74361 10.0348 9.74361H9.23615V8.58026H10.0348C10.3857 8.58026 10.6934 8.51716 10.9581 8.39098C11.2259 8.2648 11.4351 8.08937 11.5859 7.8647C11.7367 7.63696 11.8121 7.37074 11.8121 7.06605C11.8121 6.77367 11.746 6.51977 11.6136 6.30433C11.4844 6.08582 11.2997 5.91501 11.0597 5.7919C10.8227 5.6688 10.5426 5.60724 10.2195 5.60724C9.9117 5.60724 9.62393 5.66418 9.35618 5.77805C9.0915 5.88885 8.87607 6.04889 8.70987 6.25817C8.54368 6.46437 8.45443 6.71212 8.44212 7.00142H7.06179C7.07718 6.49053 7.22798 6.04119 7.5142 5.65341C7.8035 5.26562 8.18513 4.96248 8.65909 4.74396C9.13305 4.52545 9.65933 4.41619 10.2379 4.41619C10.8442 4.41619 11.3674 4.53468 11.8075 4.77166C12.2507 5.00556 12.5923 5.31794 12.8324 5.70881C13.0755 6.09967 13.1955 6.52746 13.1925 6.99219C13.1955 7.52154 13.0478 7.97088 12.7493 8.3402C12.4538 8.70952 12.0599 8.95727 11.5675 9.08345V9.15732C12.1953 9.25272 12.6816 9.50201 13.0263 9.90518C13.3741 10.3084 13.5464 10.8085 13.5433 11.4055C13.5464 11.9257 13.4018 12.3919 13.1094 12.8043C12.8201 13.2167 12.4246 13.5414 11.9229 13.7784C11.4213 14.0123 10.8473 14.1293 10.201 14.1293Z" fill="#272D37"/>
</svg>
