<svg width="48" height="48" viewBox="0 0 48 48" fill="none" xmlns="http://www.w3.org/2000/svg">
<path d="M32 22V19.2C32 18.0799 32 17.5198 31.782 17.092C31.5903 16.7157 31.2843 16.4097 30.908 16.218C30.4802 16 29.9201 16 28.8 16H17.2C16.0799 16 15.5198 16 15.092 16.218C14.7157 16.4097 14.4097 16.7157 14.218 17.092C14 17.5198 14 18.0799 14 19.2V28.8C14 29.9201 14 30.4802 14.218 30.908C14.4097 31.2843 14.7157 31.5903 15.092 31.782C15.5198 32 16.0799 32 17.2 32H28.8C29.9201 32 30.4802 32 30.908 31.782C31.2843 31.5903 31.5903 31.2843 31.782 30.908C32 30.4802 32 29.9201 32 28.8V26.5M27.6 26H32.4C32.9601 26 33.2401 26 33.454 25.891C33.6422 25.7951 33.7951 25.6422 33.891 25.454C34 25.2401 34 24.9601 34 24.4V23.6C34 23.0399 34 22.7599 33.891 22.546C33.7951 22.3578 33.6422 22.2049 33.454 22.109C33.2401 22 32.9601 22 32.4 22H27.6C27.0399 22 26.7599 22 26.546 22.109C26.3578 22.2049 26.2049 22.3578 26.109 22.546C26 22.7599 26 23.0399 26 23.6V24.4C26 24.9601 26 25.2401 26.109 25.454C26.2049 25.6422 26.3578 25.7951 26.546 25.891C26.7599 26 27.0399 26 27.6 26Z" stroke="#5F6D7E" stroke-width="2"/>
</svg>
