<svg width="22" height="22" viewBox="0 0 22 22" fill="none" xmlns="http://www.w3.org/2000/svg">
<path d="M18.3335 9.16663V6.59996C18.3335 5.5732 18.3335 5.05981 18.1337 4.66764C17.9579 4.32268 17.6774 4.04222 17.3325 3.86645C16.9403 3.66663 16.4269 3.66663 15.4002 3.66663H4.76683C3.74007 3.66663 3.22668 3.66663 2.83451 3.86645C2.48955 4.04222 2.20909 4.32268 2.03332 4.66764C1.8335 5.05981 1.8335 5.5732 1.8335 6.59996V15.4C1.8335 16.4267 1.8335 16.9401 2.03332 17.3323C2.20909 17.6772 2.48955 17.9577 2.83451 18.1335C3.22668 18.3333 3.74007 18.3333 4.76683 18.3333H15.4002C16.4269 18.3333 16.9403 18.3333 17.3325 18.1335C17.6774 17.9577 17.9579 17.6772 18.1337 17.3323C18.3335 16.9401 18.3335 16.4267 18.3335 15.4V13.2916M14.3002 12.8333H18.7002C19.2135 12.8333 19.4702 12.8333 19.6663 12.7334C19.8388 12.6455 19.979 12.5053 20.0669 12.3328C20.1668 12.1367 20.1668 11.88 20.1668 11.3666V10.6333C20.1668 10.1199 20.1668 9.86322 20.0669 9.66713C19.979 9.49465 19.8388 9.35442 19.6663 9.26654C19.4702 9.16663 19.2135 9.16663 18.7002 9.16663H14.3002C13.7868 9.16663 13.5301 9.16663 13.334 9.26654C13.1615 9.35442 13.0213 9.49465 12.9334 9.66713C12.8335 9.86322 12.8335 10.1199 12.8335 10.6333V11.3666C12.8335 11.88 12.8335 12.1367 12.9334 12.3328C13.0213 12.5053 13.1615 12.6455 13.334 12.7334C13.5301 12.8333 13.7868 12.8333 14.3002 12.8333Z" stroke="#5F6D7E" stroke-width="1.67"/>
</svg>
