<svg width="22" height="23" viewBox="0 0 22 23" fill="none" xmlns="http://www.w3.org/2000/svg">
<path d="M18.3335 9.40662V6.83995C18.3335 5.81319 18.3335 5.29981 18.1337 4.90763C17.9579 4.56267 17.6774 4.28221 17.3325 4.10644C16.9403 3.90662 16.4269 3.90662 15.4002 3.90662H4.76683C3.74007 3.90662 3.22668 3.90662 2.83451 4.10644C2.48955 4.28221 2.20909 4.56267 2.03332 4.90763C1.8335 5.29981 1.8335 5.81319 1.8335 6.83995V15.6399C1.8335 16.6667 1.8335 17.1801 2.03332 17.5723C2.20909 17.9172 2.48955 18.1977 2.83451 18.3735C3.22668 18.5733 3.74007 18.5733 4.76683 18.5733H15.4002C16.4269 18.5733 16.9403 18.5733 17.3325 18.3735C17.6774 18.1977 17.9579 17.9172 18.1337 17.5723C18.3335 17.1801 18.3335 16.6667 18.3335 15.6399V13.5316M14.3002 13.0733H18.7002C19.2135 13.0733 19.4702 13.0733 19.6663 12.9734C19.8388 12.8855 19.979 12.7453 20.0669 12.5728C20.1668 12.3767 20.1668 12.12 20.1668 11.6066V10.8733C20.1668 10.3599 20.1668 10.1032 20.0669 9.90713C19.979 9.73464 19.8388 9.59441 19.6663 9.50653C19.4702 9.40662 19.2135 9.40662 18.7002 9.40662H14.3002C13.7868 9.40662 13.5301 9.40662 13.334 9.50653C13.1615 9.59441 13.0213 9.73464 12.9334 9.90713C12.8335 10.1032 12.8335 10.3599 12.8335 10.8733V11.6066C12.8335 12.12 12.8335 12.3767 12.9334 12.5728C13.0213 12.7453 13.1615 12.8855 13.334 12.9734C13.5301 13.0733 13.7868 13.0733 14.3002 13.0733Z" stroke="#A5ACBA" stroke-width="1.67"/>
</svg>
