<svg width="24" height="28" viewBox="0 0 24 28" fill="none" xmlns="http://www.w3.org/2000/svg">
<path d="M0 1.5C0 0.671572 0.671573 0 1.5 0H15L24 9V26.5C24 27.3284 23.3284 28 22.5 28H1.5C0.671573 28 0 27.3284 0 26.5V1.5Z" fill="url(#paint0_linear_851_49964)"/>
<path d="M15 7.5V0L24 9H16.5C15.6716 9 15 8.32843 15 7.5Z" fill="#21835A"/>
<path d="M6.50586 20V19.265L9.53686 15.611L9.67686 16.024H6.56186V15.1H10.6849V15.835L7.66086 19.489L7.52086 19.076H10.7899V20H6.50586Z" fill="white"/>
<path d="M11.7171 20V15.1H12.8511V20H11.7171Z" fill="white"/>
<path d="M14.214 20V15.1H16.335C16.7737 15.1 17.1517 15.1723 17.469 15.317C17.7864 15.457 18.0314 15.66 18.204 15.926C18.3767 16.192 18.463 16.5093 18.463 16.878C18.463 17.242 18.3767 17.557 18.204 17.823C18.0314 18.089 17.7864 18.2943 17.469 18.439C17.1517 18.579 16.7737 18.649 16.335 18.649H14.844L15.348 18.138V20H14.214ZM15.348 18.264L14.844 17.725H16.272C16.622 17.725 16.8834 17.6503 17.056 17.501C17.2287 17.3516 17.315 17.144 17.315 16.878C17.315 16.6073 17.2287 16.3973 17.056 16.248C16.8834 16.0986 16.622 16.024 16.272 16.024H14.844L15.348 15.485V18.264Z" fill="white"/>
<defs>
<linearGradient id="paint0_linear_851_49964" x1="12" y1="0" x2="12" y2="28" gradientUnits="userSpaceOnUse">
<stop stop-color="#33B27C"/>
<stop offset="1" stop-color="#289B69"/>
</linearGradient>
</defs>
</svg>
