<svg width="48" height="48" viewBox="0 0 48 48" fill="none" xmlns="http://www.w3.org/2000/svg">
<path d="M14 26C14 24.8954 14.8954 24 16 24C17.1046 24 18 24.8954 18 26V30C18 31.1046 17.1046 32 16 32C14.8954 32 14 31.1046 14 30V26Z" stroke="#5F6D7E" stroke-width="2"/>
<path d="M22 18C22 16.8954 22.8954 16 24 16C25.1046 16 26 16.8954 26 18V30C26 31.1046 25.1046 32 24 32C22.8954 32 22 31.1046 22 30V18Z" stroke="#5F6D7E" stroke-width="2"/>
<path d="M30 22C30 20.8954 30.8954 20 32 20C33.1046 20 34 20.8954 34 22V30C34 31.1046 33.1046 32 32 32C30.8954 32 30 31.1046 30 30V22Z" stroke="#5F6D7E" stroke-width="2"/>
</svg>
