<svg width="48" height="48" viewBox="0 0 48 48" fill="none" xmlns="http://www.w3.org/2000/svg">
<rect width="48" height="48" rx="5" fill="#F3F9FE"/>
<g clip-path="url(#clip0_1121_145576)">
<path d="M21 13L27 13C29.8003 13 31.2004 13 32.27 13.545C33.2108 14.0243 33.9757 14.7892 34.455 15.73C35 16.7996 35 18.1997 35 21V27C35 29.8003 35 31.2004 34.455 32.27C33.9757 33.2108 33.2108 33.9757 32.27 34.455C31.2004 35 29.8003 35 27 35H21M21 13C18.1997 13 16.7996 13 15.73 13.545C14.7892 14.0243 14.0243 14.7892 13.545 15.73C13 16.7996 13 18.1997 13 21L13 27C13 29.8003 13 31.2004 13.545 32.27C14.0243 33.2108 14.7892 33.9757 15.73 34.455C16.7996 35 18.1997 35 21 35M21 13L21 35M21 24L36 24" stroke="#437EF7" stroke-width="2" stroke-linecap="round"/>
</g>
<defs>
<clipPath id="clip0_1121_145576">
<rect width="24" height="24" fill="white" transform="translate(12 12)"/>
</clipPath>
</defs>
</svg>
