<svg width="48" height="48" viewBox="0 0 48 48" fill="none" xmlns="http://www.w3.org/2000/svg">
<path d="M18.9998 19C18.9998 19.5523 19.4476 20 19.9998 20C20.5521 20 20.9998 19.5523 20.9998 19H18.9998ZM20.9998 29C20.9998 28.4477 20.5521 28 19.9998 28C19.4476 28 18.9998 28.4477 18.9998 29H20.9998ZM21.0919 33.782L21.5459 32.891L21.5459 32.891L21.0919 33.782ZM20.2178 32.908L19.3268 33.362H19.3268L20.2178 32.908ZM31.7819 32.908L32.6729 33.362L31.7819 32.908ZM30.9078 33.782L30.4538 32.891L30.4538 32.891L30.9078 33.782ZM30.9078 14.218L30.4538 15.109V15.109L30.9078 14.218ZM31.7819 15.092L30.8909 15.546V15.546L31.7819 15.092ZM20.2178 15.092L19.3268 14.638V14.638L20.2178 15.092ZM21.0919 14.218L20.6379 13.327V13.327L21.0919 14.218ZM14.9998 23C14.4476 23 13.9998 23.4477 13.9998 24C13.9998 24.5523 14.4476 25 14.9998 25L14.9998 23ZM25.9998 25C26.5521 25 26.9998 24.5523 26.9998 24C26.9998 23.4477 26.5521 23 25.9998 23V25ZM17.707 21.7071C18.0975 21.3166 18.0975 20.6834 17.707 20.2929C17.3164 19.9024 16.6833 19.9024 16.2927 20.2929L17.707 21.7071ZM15.1312 22.8686L14.4241 22.1615H14.4241L15.1312 22.8686ZM15.1312 25.1314L14.4241 25.8385L14.4241 25.8385L15.1312 25.1314ZM16.2927 27.7071C16.6833 28.0976 17.3164 28.0976 17.707 27.7071C18.0975 27.3166 18.0975 26.6834 17.707 26.2929L16.2927 27.7071ZM14.463 23.691L15.4141 24L14.463 23.691ZM14.463 24.309L15.4141 24L14.463 24.309ZM20.9998 19V17.2H18.9998V19H20.9998ZM23.1998 15H28.7998V13H23.1998V15ZM30.9998 17.2V30.8H32.9998V17.2H30.9998ZM28.7998 33H23.1998V35H28.7998V33ZM20.9998 30.8V29H18.9998V30.8H20.9998ZM23.1998 33C22.6233 33 22.251 32.9992 21.9677 32.9761C21.696 32.9539 21.5953 32.9162 21.5459 32.891L20.6379 34.673C21.0163 34.8658 21.4095 34.9371 21.8048 34.9694C22.1885 35.0008 22.6563 35 23.1998 35V33ZM18.9998 30.8C18.9998 31.3436 18.9991 31.8114 19.0304 32.195C19.0627 32.5904 19.134 32.9836 19.3268 33.362L21.1088 32.454C21.0836 32.4045 21.046 32.3038 21.0238 32.0322C21.0006 31.7488 20.9998 31.3766 20.9998 30.8H18.9998ZM21.5459 32.891C21.3577 32.7951 21.2047 32.6422 21.1088 32.454L19.3268 33.362C19.6144 33.9265 20.0734 34.3854 20.6379 34.673L21.5459 32.891ZM30.9998 30.8C30.9998 31.3766 30.9991 31.7488 30.9759 32.0322C30.9537 32.3038 30.916 32.4045 30.8909 32.454L32.6729 33.362C32.8657 32.9836 32.937 32.5904 32.9693 32.195C33.0006 31.8114 32.9998 31.3436 32.9998 30.8H30.9998ZM28.7998 35C29.3434 35 29.8112 35.0008 30.1949 34.9694C30.5902 34.9371 30.9834 34.8658 31.3618 34.673L30.4538 32.891C30.4044 32.9162 30.3037 32.9539 30.032 32.9761C29.7487 32.9992 29.3764 33 28.7998 33V35ZM30.8909 32.454C30.795 32.6422 30.642 32.7951 30.4538 32.891L31.3618 34.673C31.9263 34.3854 32.3852 33.9265 32.6729 33.362L30.8909 32.454ZM28.7998 15C29.3764 15 29.7487 15.0008 30.032 15.0239C30.3037 15.0461 30.4044 15.0838 30.4538 15.109L31.3618 13.327C30.9834 13.1342 30.5902 13.0629 30.1949 13.0306C29.8112 12.9992 29.3434 13 28.7998 13V15ZM32.9998 17.2C32.9998 16.6564 33.0006 16.1886 32.9693 15.805C32.937 15.4096 32.8657 15.0164 32.6729 14.638L30.8909 15.546C30.916 15.5955 30.9537 15.6962 30.9759 15.9678C30.9991 16.2512 30.9998 16.6234 30.9998 17.2H32.9998ZM30.4538 15.109C30.642 15.2049 30.795 15.3578 30.8909 15.546L32.6729 14.638C32.3852 14.0735 31.9263 13.6146 31.3618 13.327L30.4538 15.109ZM20.9998 17.2C20.9998 16.6234 21.0006 16.2512 21.0238 15.9678C21.046 15.6962 21.0836 15.5955 21.1088 15.546L19.3268 14.638C19.134 15.0164 19.0627 15.4096 19.0304 15.805C18.9991 16.1886 18.9998 16.6564 18.9998 17.2H20.9998ZM23.1998 13C22.6563 13 22.1885 12.9992 21.8048 13.0306C21.4095 13.0629 21.0163 13.1342 20.6379 13.327L21.5459 15.109C21.5953 15.0838 21.696 15.0461 21.9677 15.0239C22.251 15.0008 22.6233 15 23.1998 15V13ZM21.1088 15.546C21.2047 15.3578 21.3577 15.2049 21.5459 15.109L20.6379 13.327C20.0734 13.6146 19.6144 14.0735 19.3268 14.638L21.1088 15.546ZM14.9998 25L25.9998 25V23L14.9998 23L14.9998 25ZM16.2927 20.2929L14.4241 22.1615L15.8383 23.5757L17.707 21.7071L16.2927 20.2929ZM14.4241 25.8385L16.2927 27.7071L17.707 26.2929L15.8383 24.4243L14.4241 25.8385ZM14.4241 22.1615C14.2378 22.3479 14.0549 22.5296 13.9141 22.6955C13.7657 22.8704 13.6061 23.0922 13.5119 23.382L15.4141 24C15.3941 24.0614 15.3706 24.0701 15.4388 23.9899C15.5145 23.9007 15.6286 23.7854 15.8383 23.5757L14.4241 22.1615ZM15.8383 24.4243C15.6287 24.2146 15.5145 24.0993 15.4388 24.0101C15.3706 23.9299 15.3941 23.9386 15.4141 24L13.5119 24.618C13.6061 24.9078 13.7657 25.1296 13.9141 25.3045C14.0549 25.4704 14.2378 25.6521 14.4241 25.8385L15.8383 24.4243ZM13.5119 23.382C13.3814 23.7837 13.3814 24.2163 13.5119 24.618L15.4141 24V24L13.5119 23.382Z" fill="#5F6D7E"/>
</svg>
