<svg width="48" height="48" viewBox="0 0 48 48" fill="none" xmlns="http://www.w3.org/2000/svg">
<g clip-path="url(#clip0_893_48005)">
<path d="M34.2929 35.7071C34.6834 36.0976 35.3166 36.0976 35.7071 35.7071C36.0976 35.3166 36.0976 34.6834 35.7071 34.2929L34.2929 35.7071ZM30.1176 22.0588C30.1176 26.5096 26.5096 30.1176 22.0588 30.1176V32.1176C27.6142 32.1176 32.1176 27.6142 32.1176 22.0588H30.1176ZM22.0588 30.1176C17.6081 30.1176 14 26.5096 14 22.0588H12C12 27.6142 16.5035 32.1176 22.0588 32.1176V30.1176ZM14 22.0588C14 17.6081 17.6081 14 22.0588 14V12C16.5035 12 12 16.5035 12 22.0588H14ZM22.0588 14C26.5096 14 30.1176 17.6081 30.1176 22.0588H32.1176C32.1176 16.5035 27.6142 12 22.0588 12V14ZM27.8223 29.2365L34.2929 35.7071L35.7071 34.2929L29.2365 27.8223L27.8223 29.2365Z" fill="#5F6D7E"/>
</g>
<defs>
<clipPath id="clip0_893_48005">
<rect width="24" height="24" fill="white" transform="translate(12 12)"/>
</clipPath>
</defs>
</svg>
