<svg width="22" height="22" viewBox="0 0 22 22" fill="none" xmlns="http://www.w3.org/2000/svg">
<path d="M17.8781 16.511L18.6881 16.3085L18.6881 16.3085L17.8781 16.511ZM17.6947 15.7777L16.8847 15.9802L16.8847 15.9802L17.6947 15.7777ZM4.30594 15.7777L3.49587 15.5752L4.30594 15.7777ZM4.1226 16.511L4.93267 16.7135L4.1226 16.511ZM4.94432 14.7383L4.62089 13.9685H4.62089L4.94432 14.7383ZM4.56563 15.034L5.23401 15.5345H5.23401L4.56563 15.034ZM17.4351 15.034L16.7667 15.5345L16.7667 15.5345L17.4351 15.034ZM17.0564 14.7383L17.3798 13.9685H17.3798L17.0564 14.7383ZM17.6346 18.2007L17.202 17.4866H17.2019L17.6346 18.2007ZM18.0354 17.6874L18.8332 17.934V17.934L18.0354 17.6874ZM4.36605 18.2007L4.79873 17.4866H4.79873L4.36605 18.2007ZM3.96526 17.6874L4.76303 17.4409L4.76303 17.4409L3.96526 17.6874ZM10.3444 3.07804L9.971 2.33119V2.33119L10.3444 3.07804ZM4.97883 5.76083L5.35226 6.50768L4.97883 5.76083ZM4.32292 7.72857L3.57607 8.10199L3.57607 8.10199L4.32292 7.72857ZM4.48233 8.04739L5.22918 7.67397L5.22918 7.67397L4.48233 8.04739ZM17.5184 8.04739L16.7715 7.67397L16.7715 7.67397L17.5184 8.04739ZM17.6778 7.72857L16.9309 7.35515L16.9309 7.35515L17.6778 7.72857ZM17.0218 5.76083L17.3953 5.01399L17.0218 5.76083ZM11.6563 3.07804L12.0297 2.33119L11.6563 3.07804ZM18.0205 6.81973L18.8555 6.81339V6.81339L18.0205 6.81973ZM17.8413 6.28227L17.1695 6.77819L17.1695 6.77819L17.8413 6.28227ZM4.15936 6.28227L3.48757 5.78636L3.48757 5.78636L4.15936 6.28227ZM3.9802 6.81973L3.14523 6.81339V6.81339L3.9802 6.81973ZM17.3501 8.23755L17.0778 7.44819L17.0778 7.44819L17.3501 8.23755ZM17.4357 8.18463L18.02 8.78118L18.02 8.78117L17.4357 8.18463ZM4.65058 8.23755L4.92285 7.44819H4.92285L4.65058 8.23755ZM4.56495 8.18463L3.98069 8.78117L3.98069 8.78117L4.56495 8.18463ZM10.8313 2.874L10.6773 2.05331L10.8313 2.874ZM11.1694 2.874L11.3233 2.05331L11.1694 2.874ZM5.58201 13.7501C5.58201 14.2112 5.95585 14.5851 6.41701 14.5851C6.87817 14.5851 7.25201 14.2112 7.25201 13.7501H5.58201ZM7.25201 8.25008C7.25201 7.78892 6.87817 7.41508 6.41701 7.41508C5.95585 7.41508 5.58201 7.78892 5.58201 8.25008H7.25201ZM10.1653 13.7501C10.1653 14.2112 10.5392 14.5851 11.0003 14.5851C11.4615 14.5851 11.8353 14.2112 11.8353 13.7501H10.1653ZM11.8353 9.16675C11.8353 8.70559 11.4615 8.33175 11.0003 8.33175C10.5392 8.33175 10.1653 8.70559 10.1653 9.16675H11.8353ZM14.7487 13.7501C14.7487 14.2112 15.1225 14.5851 15.5837 14.5851C16.0448 14.5851 16.4187 14.2112 16.4187 13.7501H14.7487ZM16.4187 9.16675C16.4187 8.70559 16.0448 8.33175 15.5837 8.33175C15.1225 8.33175 14.7487 8.70559 14.7487 9.16675H16.4187ZM5.54548 19.1684H16.4552V17.4984H5.54548V19.1684ZM18.6881 16.3085L18.5048 15.5752L16.8847 15.9802L17.068 16.7135L18.6881 16.3085ZM16.2719 13.8317H5.72881V15.5017H16.2719V13.8317ZM3.49587 15.5752L3.31253 16.3085L4.93267 16.7135L5.11601 15.9802L3.49587 15.5752ZM5.72881 13.8317C5.3969 13.8317 4.98426 13.8158 4.62089 13.9685L5.26775 15.5081C5.23701 15.521 5.23105 15.514 5.30714 15.5085C5.39373 15.5022 5.51216 15.5017 5.72881 15.5017V13.8317ZM5.11601 15.9802C5.16855 15.77 5.19776 15.6553 5.22484 15.5728C5.24864 15.5003 5.254 15.5078 5.23401 15.5345L3.89724 14.5335C3.661 14.849 3.57637 15.2532 3.49587 15.5752L5.11601 15.9802ZM4.62089 13.9685C4.33373 14.0891 4.08393 14.2842 3.89724 14.5335L5.23401 15.5345C5.24272 15.5228 5.25436 15.5137 5.26775 15.5081L4.62089 13.9685ZM18.5048 15.5752C18.4243 15.2532 18.3397 14.849 18.1034 14.5335L16.7667 15.5345C16.7467 15.5078 16.752 15.5003 16.7758 15.5728C16.8029 15.6553 16.8321 15.77 16.8847 15.9802L18.5048 15.5752ZM16.2719 15.5017C16.4885 15.5017 16.607 15.5022 16.6935 15.5085C16.7696 15.514 16.7637 15.521 16.7329 15.5081L17.3798 13.9685C17.0164 13.8158 16.6038 13.8317 16.2719 13.8317V15.5017ZM18.1034 14.5335C17.9168 14.2842 17.667 14.0891 17.3798 13.9685L16.7329 15.5081C16.7463 15.5137 16.758 15.5228 16.7667 15.5345L18.1034 14.5335ZM16.4552 19.1684C16.76 19.1684 17.0436 19.1692 17.2765 19.1486C17.5156 19.1274 17.7985 19.0778 18.0673 18.9149L17.2019 17.4866C17.2518 17.4564 17.2651 17.4731 17.1293 17.4851C16.9873 17.4976 16.7907 17.4984 16.4552 17.4984V19.1684ZM17.068 16.7135C17.1494 17.039 17.1963 17.2299 17.2186 17.3708C17.2399 17.5054 17.2204 17.4966 17.2377 17.4409L18.8332 17.934C18.926 17.6337 18.9056 17.3472 18.8681 17.1101C18.8316 16.8792 18.7621 16.6042 18.6881 16.3085L17.068 16.7135ZM18.0673 18.9149C18.4341 18.6927 18.7066 18.3437 18.8332 17.934L17.2377 17.4409C17.2318 17.46 17.219 17.4762 17.202 17.4866L18.0673 18.9149ZM5.54548 17.4984C5.21 17.4984 5.01338 17.4976 4.87135 17.4851C4.73554 17.4731 4.74885 17.4564 4.79873 17.4866L3.93336 18.9149C4.20221 19.0778 4.48509 19.1274 4.72418 19.1486C4.95704 19.1692 5.24065 19.1684 5.54548 19.1684V17.4984ZM3.31253 16.3085C3.2386 16.6042 3.16907 16.8792 3.13258 17.1101C3.09511 17.3472 3.07467 17.6337 3.16749 17.934L4.76303 17.4409C4.78025 17.4966 4.76083 17.5054 4.78211 17.3708C4.80437 17.2299 4.85131 17.039 4.93267 16.7135L3.31253 16.3085ZM4.79873 17.4866C4.78163 17.4762 4.76893 17.46 4.76303 17.4409L3.16749 17.934C3.29411 18.3437 3.56661 18.6927 3.93336 18.9149L4.79873 17.4866ZM4.81029 9.08508H17.1904V7.41508H4.81029V9.08508ZM9.971 2.33119L4.60541 5.01399L5.35226 6.50768L10.7179 3.82488L9.971 2.33119ZM3.57607 8.10199L3.73548 8.42081L5.22918 7.67397L5.06977 7.35515L3.57607 8.10199ZM18.2652 8.42081L18.4246 8.10199L16.9309 7.35515L16.7715 7.67397L18.2652 8.42081ZM17.3953 5.01399L12.0297 2.33119L11.2828 3.82488L16.6484 6.50768L17.3953 5.01399ZM18.4246 8.102C18.5332 7.88473 18.6378 7.67715 18.7106 7.49585C18.7871 7.30547 18.8575 7.07755 18.8555 6.81339L17.1855 6.82607C17.1852 6.78198 17.1989 6.77889 17.1611 6.87312C17.1196 6.97642 17.0519 7.11323 16.9309 7.35515L18.4246 8.102ZM16.6484 6.50768C16.8903 6.62864 17.0266 6.69748 17.1218 6.75521C17.2086 6.80788 17.1957 6.81366 17.1695 6.77819L18.5131 5.78636C18.3562 5.57383 18.1632 5.43369 17.9878 5.3273C17.8207 5.22597 17.6125 5.12262 17.3953 5.01399L16.6484 6.50768ZM18.8555 6.81339C18.8526 6.44349 18.7328 6.08397 18.5131 5.78636L17.1695 6.77819C17.1798 6.79206 17.1854 6.80882 17.1855 6.82607L18.8555 6.81339ZM4.60541 5.01399C4.38814 5.12262 4.17998 5.22597 4.01292 5.3273C3.83748 5.43369 3.64446 5.57383 3.48757 5.78636L4.83114 6.77819C4.80495 6.81366 4.79208 6.80787 4.87892 6.75521C4.97411 6.69748 5.11034 6.62864 5.35226 6.50768L4.60541 5.01399ZM5.06977 7.35515C4.94881 7.11323 4.88113 6.97642 4.83961 6.87312C4.80174 6.77889 4.81551 6.78198 4.81518 6.82607L3.14523 6.81339C3.14322 7.07755 3.21356 7.30547 3.29006 7.49585C3.36293 7.67715 3.46744 7.88473 3.57607 8.10199L5.06977 7.35515ZM3.48757 5.78636C3.26788 6.08397 3.14804 6.44349 3.14523 6.81339L4.81518 6.82607C4.81531 6.80883 4.8209 6.79206 4.83114 6.77819L3.48757 5.78636ZM17.1904 9.08508C17.2121 9.08508 17.4222 9.09597 17.6224 9.02692L17.0778 7.44819C17.1566 7.42102 17.2188 7.41617 17.2355 7.41513C17.2428 7.41468 17.2444 7.41483 17.2347 7.41495C17.2249 7.41507 17.2124 7.41508 17.1904 7.41508V9.08508ZM16.7715 7.67397C16.7617 7.69367 16.7561 7.70481 16.7516 7.71356C16.7471 7.72217 16.7477 7.72067 16.7514 7.71433C16.7598 7.69987 16.7919 7.64641 16.8515 7.5881L18.02 8.78117C18.1713 8.63298 18.2555 8.44026 18.2652 8.42081L16.7715 7.67397ZM17.6224 9.02692C17.7715 8.97548 17.9073 8.89154 18.02 8.78118L16.8515 7.58809C16.9156 7.52526 16.9929 7.47747 17.0778 7.44819L17.6224 9.02692ZM4.81029 7.41508C4.78825 7.41508 4.77579 7.41507 4.76595 7.41495C4.75626 7.41483 4.75787 7.41468 4.76518 7.41513C4.78187 7.41617 4.84407 7.42102 4.92285 7.44819L4.37831 9.02692C4.57852 9.09597 4.78856 9.08508 4.81029 9.08508V7.41508ZM3.73548 8.42081C3.7452 8.44025 3.82939 8.63298 3.98069 8.78117L5.14922 7.5881C5.20876 7.64641 5.24091 7.69988 5.2493 7.71434C5.25298 7.72067 5.25356 7.72218 5.24912 7.71356C5.24461 7.70481 5.23903 7.69367 5.22918 7.67397L3.73548 8.42081ZM4.92285 7.44819C5.00774 7.47747 5.08506 7.52526 5.14922 7.58809L3.98069 8.78117C4.09338 8.89154 4.2292 8.97548 4.37831 9.02692L4.92285 7.44819ZM10.7179 3.82488C10.8457 3.76094 10.9131 3.72757 10.9639 3.70546C11.0067 3.68684 11.0054 3.69091 10.9853 3.69468L10.6773 2.05331C10.4093 2.1036 10.1682 2.23258 9.971 2.33119L10.7179 3.82488ZM12.0297 2.33119C11.8325 2.23258 11.5914 2.1036 11.3233 2.05331L11.0154 3.69468C10.9953 3.69091 10.994 3.68684 11.0368 3.70546C11.0876 3.72757 11.1549 3.76094 11.2828 3.82488L12.0297 2.33119ZM10.9853 3.69468C10.9952 3.69281 11.0054 3.69281 11.0154 3.69468L11.3233 2.05331C11.1099 2.01326 10.8908 2.01326 10.6773 2.05331L10.9853 3.69468ZM7.25201 13.7501V8.25008H5.58201V13.7501H7.25201ZM11.8353 13.7501V9.16675H10.1653V13.7501H11.8353ZM16.4187 13.7501V9.16675H14.7487V13.7501H16.4187Z" fill="#5F6D7E"/>
</svg>
