<svg width="22" height="22" viewBox="0 0 22 22" fill="none" xmlns="http://www.w3.org/2000/svg">
<g clip-path="url(#clip0_1121_145609)">
<path d="M8.24984 0.916748L13.7498 0.916748C16.3167 0.916748 17.6002 0.916748 18.5806 1.4163C19.443 1.85572 20.1442 2.55688 20.5836 3.41929C21.0832 4.39972 21.0832 5.68317 21.0832 8.25008V13.7501C21.0832 16.317 21.0832 17.6004 20.5836 18.5809C20.1442 19.4433 19.443 20.1444 18.5806 20.5839C17.6002 21.0834 16.3167 21.0834 13.7498 21.0834H8.24984M8.24984 0.916748C5.68293 0.916748 4.39948 0.916748 3.41905 1.4163C2.55664 1.85572 1.85548 2.55688 1.41606 3.41929C0.916504 4.39972 0.916504 5.68317 0.916504 8.25008L0.916504 13.7501C0.916504 16.317 0.916504 17.6004 1.41606 18.5809C1.85548 19.4433 2.55664 20.1444 3.41905 20.5839C4.39948 21.0834 5.68293 21.0834 8.24984 21.0834M8.24984 0.916748L8.24984 21.0834M8.24984 11.0001L21.9998 11.0001" stroke="#5F6D7E" stroke-width="1.67" stroke-linecap="round"/>
</g>
<defs>
<clipPath id="clip0_1121_145609">
<rect width="22" height="22" fill="white"/>
</clipPath>
</defs>
</svg>
