<svg width="22" height="18" viewBox="0 0 22 18" fill="none" xmlns="http://www.w3.org/2000/svg">
<path d="M2.75016 2.58341L9.87461 8.12465C10.5366 8.63957 11.4637 8.63956 12.1257 8.12465L19.2502 2.58341M4.76683 16.3334H17.2335C18.2603 16.3334 18.7736 16.3334 19.1658 16.1336C19.5108 15.9578 19.7912 15.6774 19.967 15.3324C20.1668 14.9402 20.1668 14.4268 20.1668 13.4001V4.60008C20.1668 3.57332 20.1668 3.05994 19.967 2.66777C19.7912 2.3228 19.5108 2.04234 19.1658 1.86657C18.7736 1.66675 18.2603 1.66675 17.2335 1.66675H4.76683C3.74007 1.66675 3.22668 1.66675 2.83451 1.86657C2.48955 2.04234 2.20909 2.3228 2.03332 2.66777C1.8335 3.05994 1.8335 3.57332 1.8335 4.60008V13.4001C1.8335 14.4268 1.8335 14.9402 2.03332 15.3324C2.20909 15.6774 2.48955 15.9578 2.83451 16.1336C3.22668 16.3334 3.74007 16.3334 4.76683 16.3334Z" stroke="#5F6D7E" stroke-width="1.67"/>
</svg>
