<svg width="22" height="22" viewBox="0 0 22 22" fill="none" xmlns="http://www.w3.org/2000/svg">
<path d="M8.25016 18.0086C8.92203 18.7698 9.90503 19.2499 11.0002 19.2499C12.0953 19.2499 13.0783 18.7698 13.7502 18.0086M14.6668 1.77417C16.8549 2.86155 18.4917 4.89178 19.0457 7.33328M16.4978 12.0824V9.1667C16.4978 6.12127 14.0456 3.6667 11.0002 3.6667C7.95474 3.6667 5.46933 6.01663 5.46933 9.1667V12.0627C5.46933 12.5056 5.4003 12.9456 5.2649 13.3658L4.58797 15.4663C4.56943 15.5238 4.61082 15.5832 4.66944 15.5832H17.2914C17.3534 15.5832 17.3974 15.5229 17.3784 15.4639L16.6968 13.349C16.5649 12.9398 16.4978 12.5124 16.4978 12.0824Z" stroke="#5F6D7E" stroke-width="1.67" stroke-linecap="round"/>
</svg>
