<svg width="22" height="22" viewBox="0 0 22 22" fill="none" xmlns="http://www.w3.org/2000/svg">
<path d="M5.49984 6.41667H4.58317C4.07691 6.41667 3.6665 6.82707 3.6665 7.33333C3.6665 7.83959 4.07691 8.25 4.58317 8.25H5.49984M5.49984 13.75H4.58317C4.07691 13.75 3.6665 14.1604 3.6665 14.6667C3.6665 15.1729 4.07691 15.5833 4.58317 15.5833H5.49984M18.3332 16.6137C17.0822 14.3592 14.6775 12.8333 11.9165 12.8333C9.15548 12.8333 6.75084 14.3592 5.49984 16.6137M8.43317 19.25H15.3998C16.4266 19.25 16.94 19.25 17.3322 19.0502C17.6771 18.8744 17.9576 18.5939 18.1333 18.249C18.3332 17.8568 18.3332 17.3434 18.3332 16.3167V5.68333C18.3332 4.65657 18.3332 4.14319 18.1333 3.75102C17.9576 3.40605 17.6771 3.12559 17.3322 2.94982C16.94 2.75 16.4266 2.75 15.3998 2.75H8.43317C7.40641 2.75 6.89303 2.75 6.50085 2.94982C6.15589 3.12559 5.87543 3.40605 5.69966 3.75102C5.49984 4.14319 5.49984 4.65657 5.49984 5.68333V16.3167C5.49984 17.3434 5.49984 17.8568 5.69966 18.249C5.87543 18.5939 6.15589 18.8744 6.50085 19.0502C6.89303 19.25 7.40641 19.25 8.43317 19.25ZM14.7009 9.2012C14.7009 10.7391 13.4543 11.9857 11.9164 11.9857C10.3785 11.9857 9.13187 10.7391 9.13187 9.2012C9.13187 7.66335 10.3785 6.41667 11.9164 6.41667C13.4543 6.41667 14.7009 7.66335 14.7009 9.2012Z" stroke="#5F6D7E" stroke-width="1.67"/>
</svg>
